M48
;Layer_Color=9474304
;FILE_FORMAT=2:4
INCH,LZ
;TYPE=PLATED
T1F00S00C0.0300
T2F00S00C0.1260
%
T01
X0075Y0045
Y0055
X0085Y0035
X0095
X0105
X0115
X0125
X0135
X0145
X0155
X0165Y0045
Y0055
X0195
Y0045
X0205Y0035
X0215
X0225
X0235
X0245
X0255
X0265
X0275
X0285Y0045
Y0055
X0315
Y0045
X0325Y0035
X0335
X0345
X0355
X0365
X0375
X0385
X0395
X0405Y0045
Y0055
X0435
Y0045
X0445Y0035
X0455
X0465
X0475
X0485
X0495
X0505
X0515
X0525Y0045
Y0055
Y0065
Y0075
Y0085
Y0095
Y0105
Y0115
Y0165
Y0175
Y0185
Y0195
Y0205
X0515Y0155
X0505
X0495
X0485
X0475
X0465
X0455
X0445
X0435Y0165
Y0175
Y0185
Y0195
Y0205
X0405
Y0195
Y0185
Y0175
Y0165
X0395Y0155
X0385
X0375
Y0125
X0385
X0395
X0405Y0115
Y0105
Y0095
Y0085
Y0075
Y0065
X0435
Y0075
Y0085
Y0095
Y0105
Y0115
X0445Y0125
X0455
X0465
X0475
X0485
X0495
X0505
X0515
X0365
X0355
X0345
X0335
X0325
X0315Y0115
Y0105
Y0095
Y0085
Y0075
Y0065
X0285
Y0075
Y0085
Y0095
Y0105
Y0115
X0275Y0125
X0265
X0255
X0245
X0235
X0225
X0215
Y0155
X0225
X0235
X0245
X0255
X0265
X0275
X0285Y0165
Y0175
Y0185
Y0195
Y0205
X0315
Y0195
Y0185
Y0175
Y0165
X0325Y0155
X0335
X0345
X0355
X0365
X0205
X0195Y0165
Y0175
Y0185
Y0195
Y0205
X0165
Y0195
Y0185
Y0175
Y0165
X0155Y0155
X0145
X0135
X0125
X0115
X0105
X0095
X0085
X0075Y0165
Y0175
Y0185
Y0195
Y0205
X0085Y0125
X0095
X0105
X0115
X0125
X0135
X0145
X0155
X0165Y0115
Y0105
Y0095
Y0085
Y0075
Y0065
X0195
Y0075
Y0085
Y0095
Y0105
Y0115
X0205Y0125
X0075Y0115
Y0105
Y0095
Y0085
Y0075
Y0065
Y0215
Y0225
Y0235
X0085Y0245
X0095
X0105
X0115
X0125
X0135
X0145
X0155
X0165Y0235
Y0225
Y0215
X0195
Y0225
Y0235
X0205Y0245
Y0275
X0195Y0285
Y0295
Y0305
Y0315
Y0325
Y0335
Y0345
Y0355
X0205Y0365
X0155
X0145
X0135
X0125
X0115
X0105
X0095
X0085
X0075Y0355
Y0345
Y0335
Y0325
Y0315
Y0305
Y0295
Y0285
X0085Y0275
X0095
X0105
X0115
X0125
X0135
X0145
X0155
X0165Y0285
Y0295
Y0305
Y0315
Y0325
Y0335
Y0345
Y0355
X0215Y0365
X0225
X0235
X0245
X0255
X0265
X0275
X0285Y0355
Y0345
Y0335
Y0325
Y0315
Y0305
Y0295
Y0285
X0275Y0275
X0265
X0255
X0245
X0235
X0225
X0215
Y0245
X0225
X0235
X0245
X0255
X0265
X0275
X0285Y0235
Y0225
Y0215
X0315
Y0225
Y0235
X0325Y0245
X0335
X0345
X0355
X0365
Y0275
X0355
X0345
X0335
X0325
X0315Y0285
Y0295
Y0305
Y0315
Y0325
Y0335
Y0345
Y0355
X0325Y0365
X0335
X0345
X0355
X0365
X0375
X0385
X0395
X0405Y0355
Y0345
Y0335
Y0325
Y0315
Y0305
Y0295
Y0285
X0395Y0275
X0385
X0375
Y0245
X0385
X0395
X0405Y0235
Y0225
Y0215
X0435
Y0225
Y0235
X0445Y0245
X0455
X0465
X0475
X0485
X0495
X0505
X0515
Y0275
X0505
X0495
X0485
X0475
X0465
X0455
X0445
X0435Y0285
Y0295
Y0305
Y0315
Y0325
Y0335
Y0345
Y0355
X0445Y0365
X0455
X0465
X0475
X0485
X0495
X0505
X0515
X0525Y0355
Y0345
Y0335
Y0325
Y0315
Y0305
Y0295
Y0285
Y0235
Y0225
Y0215
T02
X001Y001
X059
Y039
X001
M30
