%FSLAX24Y24*%
%MOIN*%
G70*
G01*
G75*
G04 Layer_Color=16711935*
%ADD10R,0.0551X0.0472*%
%ADD11R,0.0472X0.0551*%
%ADD12O,0.0630X0.0118*%
%ADD13O,0.0118X0.0630*%
%ADD14C,0.0118*%
%ADD15C,0.0394*%
%ADD16C,0.1260*%
%ADD17C,0.0750*%
%ADD18C,0.0098*%
%ADD19C,0.0236*%
%ADD20C,0.0100*%
%ADD21C,0.0079*%
%ADD22R,0.0631X0.0552*%
%ADD23R,0.0552X0.0631*%
%ADD24O,0.0710X0.0198*%
%ADD25O,0.0198X0.0710*%
%ADD26C,0.1181*%
%ADD27C,0.1340*%
%ADD28C,0.0830*%
%ADD29C,0.0010*%
D20*
X6500Y2500D02*
X17500D01*
X6500D02*
Y13500D01*
X17500Y2500D02*
Y13500D01*
X6500D02*
X17500D01*
X18500Y2500D02*
X29500D01*
X18500D02*
Y13500D01*
X29500Y2500D02*
Y13500D01*
X18500D02*
X29500D01*
X30500Y2500D02*
X41500D01*
X30500D02*
Y13500D01*
X41500Y2500D02*
Y13500D01*
X30500D02*
X41500D01*
X42500Y2500D02*
X53500D01*
X42500D02*
Y13500D01*
X53500Y2500D02*
Y13500D01*
X42500D02*
X53500D01*
X6500Y14500D02*
X17500D01*
X6500D02*
Y25500D01*
X17500Y14500D02*
Y25500D01*
X6500D02*
X17500D01*
X18500Y14500D02*
X29500D01*
X18500D02*
Y25500D01*
X29500Y14500D02*
Y25500D01*
X18500D02*
X29500D01*
X30500Y14500D02*
X41500D01*
X30500D02*
Y25500D01*
X41500Y14500D02*
Y25500D01*
X30500D02*
X41500D01*
X42500Y14500D02*
X53500D01*
X42500D02*
Y25500D01*
X53500Y14500D02*
Y25500D01*
X42500D02*
X53500D01*
X6500Y26500D02*
X17500D01*
X6500D02*
Y37500D01*
X17500Y26500D02*
Y37500D01*
X6500D02*
X17500D01*
X18500Y26500D02*
X29500D01*
X18500D02*
Y37500D01*
X29500Y26500D02*
Y37500D01*
X18500D02*
X29500D01*
X30500Y26500D02*
X41500D01*
X30500D02*
Y37500D01*
X41500Y26500D02*
Y37500D01*
X30500D02*
X41500D01*
X42500Y26500D02*
X53500D01*
X42500D02*
Y37500D01*
X53500Y26500D02*
Y37500D01*
X42500D02*
X53500D01*
M02*
