%FSLAX24Y24*%
%MOIN*%
G70*
G01*
G75*
G04 Layer_Color=16711935*
%ADD10R,0.0551X0.0472*%
%ADD11R,0.0472X0.0551*%
%ADD12O,0.0630X0.0118*%
%ADD13O,0.0118X0.0630*%
%ADD14C,0.0118*%
%ADD15C,0.0394*%
%ADD16C,0.1260*%
%ADD17C,0.0750*%
%ADD18C,0.0098*%
%ADD19C,0.0236*%
%ADD20C,0.0100*%
%ADD21C,0.0079*%
%ADD22R,0.0631X0.0552*%
%ADD23R,0.0552X0.0631*%
%ADD24O,0.0710X0.0198*%
%ADD25O,0.0198X0.0710*%
%ADD26C,0.1181*%
%ADD27C,0.1340*%
%ADD28C,0.0830*%
D26*
X56500Y1000D02*
D03*
Y39000D02*
D03*
X3500D02*
D03*
Y1000D02*
D03*
D27*
X1000Y39000D02*
D03*
X59000D02*
D03*
Y1000D02*
D03*
X1000D02*
D03*
D28*
X8500Y12500D02*
D03*
X9500D02*
D03*
X10500D02*
D03*
X11500D02*
D03*
X12500D02*
D03*
X13500D02*
D03*
X14500D02*
D03*
X15500D02*
D03*
X7500Y4500D02*
D03*
Y5500D02*
D03*
Y6500D02*
D03*
Y7500D02*
D03*
Y8500D02*
D03*
Y9500D02*
D03*
Y10500D02*
D03*
Y11500D02*
D03*
X16500D02*
D03*
Y10500D02*
D03*
Y9500D02*
D03*
Y8500D02*
D03*
Y7500D02*
D03*
Y6500D02*
D03*
Y5500D02*
D03*
Y4500D02*
D03*
X15500Y3500D02*
D03*
X14500D02*
D03*
X13500D02*
D03*
X12500D02*
D03*
X11500D02*
D03*
X10500D02*
D03*
X9500D02*
D03*
X8500D02*
D03*
X20500Y12500D02*
D03*
X21500D02*
D03*
X22500D02*
D03*
X23500D02*
D03*
X24500D02*
D03*
X25500D02*
D03*
X26500D02*
D03*
X27500D02*
D03*
X19500Y4500D02*
D03*
Y5500D02*
D03*
Y6500D02*
D03*
Y7500D02*
D03*
Y8500D02*
D03*
Y9500D02*
D03*
Y10500D02*
D03*
Y11500D02*
D03*
X28500D02*
D03*
Y10500D02*
D03*
Y9500D02*
D03*
Y8500D02*
D03*
Y7500D02*
D03*
Y6500D02*
D03*
Y5500D02*
D03*
Y4500D02*
D03*
X27500Y3500D02*
D03*
X26500D02*
D03*
X25500D02*
D03*
X24500D02*
D03*
X23500D02*
D03*
X22500D02*
D03*
X21500D02*
D03*
X20500D02*
D03*
X32500Y12500D02*
D03*
X33500D02*
D03*
X34500D02*
D03*
X35500D02*
D03*
X36500D02*
D03*
X37500D02*
D03*
X38500D02*
D03*
X39500D02*
D03*
X31500Y4500D02*
D03*
Y5500D02*
D03*
Y6500D02*
D03*
Y7500D02*
D03*
Y8500D02*
D03*
Y9500D02*
D03*
Y10500D02*
D03*
Y11500D02*
D03*
X40500D02*
D03*
Y10500D02*
D03*
Y9500D02*
D03*
Y8500D02*
D03*
Y7500D02*
D03*
Y6500D02*
D03*
Y5500D02*
D03*
Y4500D02*
D03*
X39500Y3500D02*
D03*
X38500D02*
D03*
X37500D02*
D03*
X36500D02*
D03*
X35500D02*
D03*
X34500D02*
D03*
X33500D02*
D03*
X32500D02*
D03*
X44500Y12500D02*
D03*
X45500D02*
D03*
X46500D02*
D03*
X47500D02*
D03*
X48500D02*
D03*
X49500D02*
D03*
X50500D02*
D03*
X51500D02*
D03*
X43500Y4500D02*
D03*
Y5500D02*
D03*
Y6500D02*
D03*
Y7500D02*
D03*
Y8500D02*
D03*
Y9500D02*
D03*
Y10500D02*
D03*
Y11500D02*
D03*
X52500D02*
D03*
Y10500D02*
D03*
Y9500D02*
D03*
Y8500D02*
D03*
Y7500D02*
D03*
Y6500D02*
D03*
Y5500D02*
D03*
Y4500D02*
D03*
X51500Y3500D02*
D03*
X50500D02*
D03*
X49500D02*
D03*
X48500D02*
D03*
X47500D02*
D03*
X46500D02*
D03*
X45500D02*
D03*
X44500D02*
D03*
X8500Y24500D02*
D03*
X9500D02*
D03*
X10500D02*
D03*
X11500D02*
D03*
X12500D02*
D03*
X13500D02*
D03*
X14500D02*
D03*
X15500D02*
D03*
X7500Y16500D02*
D03*
Y17500D02*
D03*
Y18500D02*
D03*
Y19500D02*
D03*
Y20500D02*
D03*
Y21500D02*
D03*
Y22500D02*
D03*
Y23500D02*
D03*
X16500D02*
D03*
Y22500D02*
D03*
Y21500D02*
D03*
Y20500D02*
D03*
Y19500D02*
D03*
Y18500D02*
D03*
Y17500D02*
D03*
Y16500D02*
D03*
X15500Y15500D02*
D03*
X14500D02*
D03*
X13500D02*
D03*
X12500D02*
D03*
X11500D02*
D03*
X10500D02*
D03*
X9500D02*
D03*
X8500D02*
D03*
X20500Y24500D02*
D03*
X21500D02*
D03*
X22500D02*
D03*
X23500D02*
D03*
X24500D02*
D03*
X25500D02*
D03*
X26500D02*
D03*
X27500D02*
D03*
X19500Y16500D02*
D03*
Y17500D02*
D03*
Y18500D02*
D03*
Y19500D02*
D03*
Y20500D02*
D03*
Y21500D02*
D03*
Y22500D02*
D03*
Y23500D02*
D03*
X28500D02*
D03*
Y22500D02*
D03*
Y21500D02*
D03*
Y20500D02*
D03*
Y19500D02*
D03*
Y18500D02*
D03*
Y17500D02*
D03*
Y16500D02*
D03*
X27500Y15500D02*
D03*
X26500D02*
D03*
X25500D02*
D03*
X24500D02*
D03*
X23500D02*
D03*
X22500D02*
D03*
X21500D02*
D03*
X20500D02*
D03*
X32500Y24500D02*
D03*
X33500D02*
D03*
X34500D02*
D03*
X35500D02*
D03*
X36500D02*
D03*
X37500D02*
D03*
X38500D02*
D03*
X39500D02*
D03*
X31500Y16500D02*
D03*
Y17500D02*
D03*
Y18500D02*
D03*
Y19500D02*
D03*
Y20500D02*
D03*
Y21500D02*
D03*
Y22500D02*
D03*
Y23500D02*
D03*
X40500D02*
D03*
Y22500D02*
D03*
Y21500D02*
D03*
Y20500D02*
D03*
Y19500D02*
D03*
Y18500D02*
D03*
Y17500D02*
D03*
Y16500D02*
D03*
X39500Y15500D02*
D03*
X38500D02*
D03*
X37500D02*
D03*
X36500D02*
D03*
X35500D02*
D03*
X34500D02*
D03*
X33500D02*
D03*
X32500D02*
D03*
X44500Y24500D02*
D03*
X45500D02*
D03*
X46500D02*
D03*
X47500D02*
D03*
X48500D02*
D03*
X49500D02*
D03*
X50500D02*
D03*
X51500D02*
D03*
X43500Y16500D02*
D03*
Y17500D02*
D03*
Y18500D02*
D03*
Y19500D02*
D03*
Y20500D02*
D03*
Y21500D02*
D03*
Y22500D02*
D03*
Y23500D02*
D03*
X52500D02*
D03*
Y22500D02*
D03*
Y21500D02*
D03*
Y20500D02*
D03*
Y19500D02*
D03*
Y18500D02*
D03*
Y17500D02*
D03*
Y16500D02*
D03*
X51500Y15500D02*
D03*
X50500D02*
D03*
X49500D02*
D03*
X48500D02*
D03*
X47500D02*
D03*
X46500D02*
D03*
X45500D02*
D03*
X44500D02*
D03*
X8500Y36500D02*
D03*
X9500D02*
D03*
X10500D02*
D03*
X11500D02*
D03*
X12500D02*
D03*
X13500D02*
D03*
X14500D02*
D03*
X15500D02*
D03*
X7500Y28500D02*
D03*
Y29500D02*
D03*
Y30500D02*
D03*
Y31500D02*
D03*
Y32500D02*
D03*
Y33500D02*
D03*
Y34500D02*
D03*
Y35500D02*
D03*
X16500D02*
D03*
Y34500D02*
D03*
Y33500D02*
D03*
Y32500D02*
D03*
Y31500D02*
D03*
Y30500D02*
D03*
Y29500D02*
D03*
Y28500D02*
D03*
X15500Y27500D02*
D03*
X14500D02*
D03*
X13500D02*
D03*
X12500D02*
D03*
X11500D02*
D03*
X10500D02*
D03*
X9500D02*
D03*
X8500D02*
D03*
X20500Y36500D02*
D03*
X21500D02*
D03*
X22500D02*
D03*
X23500D02*
D03*
X24500D02*
D03*
X25500D02*
D03*
X26500D02*
D03*
X27500D02*
D03*
X19500Y28500D02*
D03*
Y29500D02*
D03*
Y30500D02*
D03*
Y31500D02*
D03*
Y32500D02*
D03*
Y33500D02*
D03*
Y34500D02*
D03*
Y35500D02*
D03*
X28500D02*
D03*
Y34500D02*
D03*
Y33500D02*
D03*
Y32500D02*
D03*
Y31500D02*
D03*
Y30500D02*
D03*
Y29500D02*
D03*
Y28500D02*
D03*
X27500Y27500D02*
D03*
X26500D02*
D03*
X25500D02*
D03*
X24500D02*
D03*
X23500D02*
D03*
X22500D02*
D03*
X21500D02*
D03*
X20500D02*
D03*
X32500Y36500D02*
D03*
X33500D02*
D03*
X34500D02*
D03*
X35500D02*
D03*
X36500D02*
D03*
X37500D02*
D03*
X38500D02*
D03*
X39500D02*
D03*
X31500Y28500D02*
D03*
Y29500D02*
D03*
Y30500D02*
D03*
Y31500D02*
D03*
Y32500D02*
D03*
Y33500D02*
D03*
Y34500D02*
D03*
Y35500D02*
D03*
X40500D02*
D03*
Y34500D02*
D03*
Y33500D02*
D03*
Y32500D02*
D03*
Y31500D02*
D03*
Y30500D02*
D03*
Y29500D02*
D03*
Y28500D02*
D03*
X39500Y27500D02*
D03*
X38500D02*
D03*
X37500D02*
D03*
X36500D02*
D03*
X35500D02*
D03*
X34500D02*
D03*
X33500D02*
D03*
X32500D02*
D03*
X44500Y36500D02*
D03*
X45500D02*
D03*
X46500D02*
D03*
X47500D02*
D03*
X48500D02*
D03*
X49500D02*
D03*
X50500D02*
D03*
X51500D02*
D03*
X43500Y28500D02*
D03*
Y29500D02*
D03*
Y30500D02*
D03*
Y31500D02*
D03*
Y32500D02*
D03*
Y33500D02*
D03*
Y34500D02*
D03*
Y35500D02*
D03*
X52500D02*
D03*
Y34500D02*
D03*
Y33500D02*
D03*
Y32500D02*
D03*
Y31500D02*
D03*
Y30500D02*
D03*
Y29500D02*
D03*
Y28500D02*
D03*
X51500Y27500D02*
D03*
X50500D02*
D03*
X49500D02*
D03*
X48500D02*
D03*
X47500D02*
D03*
X46500D02*
D03*
X45500D02*
D03*
X44500D02*
D03*
M02*
