%FSLAX24Y24*%
%MOIN*%
G70*
G01*
G75*
G04 Layer_Color=65535*
%ADD10R,0.0551X0.0472*%
%ADD11R,0.0472X0.0551*%
%ADD12O,0.0630X0.0118*%
%ADD13O,0.0118X0.0630*%
%ADD14C,0.0118*%
%ADD15C,0.0750*%
%ADD16C,0.0098*%
%ADD17C,0.0236*%
%ADD18C,0.0100*%
%ADD19C,0.0079*%
D16*
X9829Y9965D02*
G03*
X9829Y9965I-49J0D01*
G01*
D17*
X10783Y9335D02*
G03*
X10783Y9335I-118J0D01*
G01*
D18*
X7000Y14000D02*
X15000D01*
Y13000D02*
Y14000D01*
X7000Y13000D02*
X15000D01*
X7000D02*
Y14000D01*
X6000Y5000D02*
Y13000D01*
X7000D01*
Y5000D02*
Y13000D01*
X6000Y5000D02*
X7000D01*
X16000D02*
Y13000D01*
X15000Y5000D02*
X16000D01*
X15000D02*
Y13000D01*
X16000D01*
X7000Y4000D02*
X15000D01*
X7000D02*
Y5000D01*
X15000D01*
Y4000D02*
Y5000D01*
X14530Y14460D02*
X14630Y14360D01*
X14830D01*
X14930Y14460D01*
Y14860D01*
X14830Y14960D01*
X14630D01*
X14530Y14860D01*
X14230Y14960D02*
X14030D01*
X13930Y14860D01*
Y14660D01*
X14030Y14560D01*
X14230D01*
X14330Y14660D01*
Y14860D01*
X14230Y14960D01*
X13730D02*
Y14560D01*
X13430D01*
X13331Y14660D01*
Y14960D01*
X13031Y14460D02*
Y14560D01*
X13131D01*
X12931D01*
X13031D01*
Y14860D01*
X12931Y14960D01*
X12631Y14560D02*
Y14960D01*
Y14760D01*
X12531Y14660D01*
X12431Y14560D01*
X12331D01*
X11931Y14960D02*
X11731D01*
X11631Y14860D01*
Y14660D01*
X11731Y14560D01*
X11931D01*
X12031Y14660D01*
Y14860D01*
X11931Y14960D01*
X11431D02*
X11231D01*
X11331D01*
Y14360D01*
X11431D01*
X10331D02*
X10132D01*
X10232D01*
Y14960D01*
X10331D01*
X10132D01*
X9532Y14360D02*
X9732D01*
X9832Y14460D01*
Y14860D01*
X9732Y14960D01*
X9532D01*
X9432Y14860D01*
Y14460D01*
X9532Y14360D01*
X8790Y9670D02*
X8690Y9770D01*
X8490D01*
X8390Y9670D01*
Y9270D01*
X8490Y9170D01*
X8690D01*
X8790Y9270D01*
X8990Y9070D02*
X9390D01*
X9590Y9170D02*
Y9570D01*
X9790Y9770D01*
X9989Y9570D01*
Y9170D01*
Y9470D01*
X9590D01*
X10189Y9770D02*
Y9370D01*
X10389Y9170D01*
X10589Y9370D01*
Y9770D01*
X10789D02*
Y9170D01*
X11089D01*
X11189Y9270D01*
Y9670D01*
X11089Y9770D01*
X10789D01*
X11389D02*
Y9170D01*
X11689D01*
X11789Y9270D01*
Y9670D01*
X11689Y9770D01*
X11389D01*
X11989Y9070D02*
X12389D01*
X12589Y9670D02*
X12689Y9770D01*
X12889D01*
X12989Y9670D01*
Y9270D01*
X12889Y9170D01*
X12689D01*
X12589Y9270D01*
Y9670D01*
X13188Y9170D02*
Y9270D01*
X13288D01*
Y9170D01*
X13188D01*
X13688D02*
X13888D01*
X13788D01*
Y9770D01*
X13688Y9670D01*
X14188Y9570D02*
Y9270D01*
X14288Y9170D01*
X14588D01*
Y9570D01*
X9020Y7100D02*
X8920Y7200D01*
X8720D01*
X8620Y7100D01*
Y6700D01*
X8720Y6600D01*
X8920D01*
X9020Y6700D01*
X9220Y6500D02*
X9620D01*
X9820Y7200D02*
Y6600D01*
X10120D01*
X10219Y6700D01*
Y7100D01*
X10120Y7200D01*
X9820D01*
X10419D02*
Y6800D01*
X10619Y6600D01*
X10819Y6800D01*
Y7200D01*
X11019D02*
Y6600D01*
X11319D01*
X11419Y6700D01*
Y7100D01*
X11319Y7200D01*
X11019D01*
X11619D02*
Y6600D01*
X11919D01*
X12019Y6700D01*
Y7100D01*
X11919Y7200D01*
X11619D01*
X12219Y6500D02*
X12619D01*
X12819Y7100D02*
X12919Y7200D01*
X13119D01*
X13219Y7100D01*
Y6700D01*
X13119Y6600D01*
X12919D01*
X12819Y6700D01*
Y7100D01*
X13418Y6600D02*
Y6700D01*
X13518D01*
Y6600D01*
X13418D01*
X13918D02*
X14118D01*
X14018D01*
Y7200D01*
X13918Y7100D01*
X14418Y7000D02*
Y6700D01*
X14518Y6600D01*
X14818D01*
Y7000D01*
X9520Y8340D02*
X9420Y8440D01*
X9220D01*
X9120Y8340D01*
Y7940D01*
X9220Y7840D01*
X9420D01*
X9520Y7940D01*
X9720Y7740D02*
X10120D01*
X10320Y7840D02*
Y8240D01*
X10520Y8440D01*
X10719Y8240D01*
Y7840D01*
Y8140D01*
X10320D01*
X10919Y8440D02*
Y8040D01*
X11119Y7840D01*
X11319Y8040D01*
Y8440D01*
X11519D02*
Y7840D01*
X11819D01*
X11919Y7940D01*
Y8340D01*
X11819Y8440D01*
X11519D01*
X12119D02*
Y7840D01*
X12419D01*
X12519Y7940D01*
Y8340D01*
X12419Y8440D01*
X12119D01*
X12719Y7740D02*
X13119D01*
X13319Y7840D02*
X13519D01*
X13419D01*
Y8440D01*
X13319Y8340D01*
X13818D02*
X13918Y8440D01*
X14118D01*
X14218Y8340D01*
Y7940D01*
X14118Y7840D01*
X13918D01*
X13818Y7940D01*
Y8340D01*
X14418Y8240D02*
Y7940D01*
X14518Y7840D01*
X14818D01*
Y8240D01*
X9070Y5770D02*
X8970Y5870D01*
X8770D01*
X8670Y5770D01*
Y5370D01*
X8770Y5270D01*
X8970D01*
X9070Y5370D01*
X9270Y5170D02*
X9670D01*
X9870Y5870D02*
Y5270D01*
X10170D01*
X10269Y5370D01*
Y5770D01*
X10170Y5870D01*
X9870D01*
X10469D02*
Y5470D01*
X10669Y5270D01*
X10869Y5470D01*
Y5870D01*
X11069D02*
Y5270D01*
X11369D01*
X11469Y5370D01*
Y5770D01*
X11369Y5870D01*
X11069D01*
X11669D02*
Y5270D01*
X11969D01*
X12069Y5370D01*
Y5770D01*
X11969Y5870D01*
X11669D01*
X12269Y5170D02*
X12669D01*
X12869Y5270D02*
X13069D01*
X12969D01*
Y5870D01*
X12869Y5770D01*
X13368D02*
X13468Y5870D01*
X13668D01*
X13768Y5770D01*
Y5370D01*
X13668Y5270D01*
X13468D01*
X13368Y5370D01*
Y5770D01*
X13968Y5670D02*
Y5370D01*
X14068Y5270D01*
X14368D01*
Y5670D01*
X6440Y11560D02*
Y10960D01*
X6740D01*
X6840Y11060D01*
Y11460D01*
X6740Y11560D01*
X6440D01*
X7040Y10960D02*
Y11360D01*
X7240Y11560D01*
X7440Y11360D01*
Y10960D01*
Y11260D01*
X7040D01*
X8039Y11460D02*
X7940Y11560D01*
X7740D01*
X7640Y11460D01*
Y11060D01*
X7740Y10960D01*
X7940D01*
X8039Y11060D01*
X8239Y11460D02*
X8339Y11560D01*
X8539D01*
X8639Y11460D01*
Y11360D01*
X8539Y11260D01*
X8639Y11160D01*
Y11060D01*
X8539Y10960D01*
X8339D01*
X8239Y11060D01*
Y11160D01*
X8339Y11260D01*
X8239Y11360D01*
Y11460D01*
X8339Y11260D02*
X8539D01*
X9239Y11560D02*
X8839D01*
Y11260D01*
X9039Y11360D01*
X9139D01*
X9239Y11260D01*
Y11060D01*
X9139Y10960D01*
X8939D01*
X8839Y11060D01*
X9739Y10960D02*
Y11560D01*
X9439Y11260D01*
X9839D01*
X10039Y10960D02*
X10239D01*
X10139D01*
Y11560D01*
X10039Y11460D01*
X10539Y11560D02*
Y11460D01*
X10739Y11260D01*
X10939Y11460D01*
Y11560D01*
X10739Y11260D02*
Y10960D01*
X11138Y11260D02*
X11538D01*
X11738Y10960D02*
Y11560D01*
X12038D01*
X12138Y11460D01*
Y11260D01*
X12038Y11160D01*
X11738D01*
X12338Y11560D02*
Y10960D01*
X12638D01*
X12738Y11060D01*
Y11160D01*
X12638Y11260D01*
X12338D01*
X12638D01*
X12738Y11360D01*
Y11460D01*
X12638Y11560D01*
X12338D01*
X13338Y11460D02*
X13238Y11560D01*
X13038D01*
X12938Y11460D01*
Y11360D01*
X13038Y11260D01*
X13238D01*
X13338Y11160D01*
Y11060D01*
X13238Y10960D01*
X13038D01*
X12938Y11060D01*
X5560Y13010D02*
X4960D01*
Y12710D01*
X5060Y12610D01*
X5460D01*
X5560Y12710D01*
Y13010D01*
Y12410D02*
X4960D01*
Y12110D01*
X5060Y12010D01*
X5160D01*
X5260Y12110D01*
Y12410D01*
Y12110D01*
X5360Y12010D01*
X5460D01*
X5560Y12110D01*
Y12410D01*
X5460Y11810D02*
X5560Y11710D01*
Y11510D01*
X5460Y11411D01*
X5360D01*
X5260Y11510D01*
X5160Y11411D01*
X5060D01*
X4960Y11510D01*
Y11710D01*
X5060Y11810D01*
X5160D01*
X5260Y11710D01*
X5360Y11810D01*
X5460D01*
X5260Y11710D02*
Y11510D01*
X5460Y11211D02*
X5560Y11111D01*
Y10911D01*
X5660Y10811D01*
X4960Y10611D02*
Y10411D01*
Y10511D01*
X5560D01*
X5460Y10611D01*
X5560Y9711D02*
Y10111D01*
X5260D01*
X5360Y9911D01*
Y9811D01*
X5260Y9711D01*
X5060D01*
X4960Y9811D01*
Y10011D01*
X5060Y10111D01*
X16390Y5400D02*
X16290Y5300D01*
Y5100D01*
X16390Y5000D01*
X16490D01*
X16590Y5100D01*
Y5300D01*
X16690Y5400D01*
X16790D01*
X16890Y5300D01*
Y5100D01*
X16790Y5000D01*
X16490Y5600D02*
X16790D01*
X16890Y5700D01*
Y6000D01*
X16490D01*
X17090Y6200D02*
X16490D01*
Y6500D01*
X16590Y6599D01*
X16790D01*
X16890Y6500D01*
Y6200D01*
X17090Y6799D02*
X16490D01*
Y7099D01*
X16590Y7199D01*
X16790D01*
X16890Y7099D01*
Y6799D01*
Y7399D02*
Y7599D01*
Y7499D01*
X16290D01*
Y7399D01*
X16490Y7899D02*
X16790D01*
X16890Y7999D01*
Y8299D01*
X16990D01*
X17090Y8199D01*
Y8099D01*
X16890Y8299D02*
X16490D01*
X16890Y9099D02*
X16290D01*
Y9399D01*
X16390Y9499D01*
X16590D01*
X16690Y9399D01*
Y9099D01*
X16890Y9698D02*
Y9898D01*
Y9798D01*
X16490D01*
Y9698D01*
X16890Y10198D02*
X16490D01*
Y10498D01*
X16590Y10598D01*
X16890D01*
Y10798D02*
Y11098D01*
X16790Y11198D01*
X16690Y11098D01*
Y10898D01*
X16590Y10798D01*
X16490Y10898D01*
Y11198D01*
X6980Y3700D02*
Y3100D01*
X7280D01*
X7380Y3200D01*
Y3600D01*
X7280Y3700D01*
X6980D01*
X7580D02*
Y3100D01*
X7880D01*
X7980Y3200D01*
Y3300D01*
X7880Y3400D01*
X7580D01*
X7880D01*
X7980Y3500D01*
Y3600D01*
X7880Y3700D01*
X7580D01*
X8180Y3600D02*
X8280Y3700D01*
X8480D01*
X8579Y3600D01*
Y3200D01*
X8480Y3100D01*
X8280D01*
X8180Y3200D01*
Y3600D01*
X8779D02*
X8879Y3700D01*
X9079D01*
X9179Y3800D01*
X9379Y3700D02*
X9779D01*
Y3600D01*
X9379Y3200D01*
Y3100D01*
D19*
X13404Y9750D02*
X13876D01*
X14000Y7624D02*
Y8096D01*
X14264Y9750D02*
X14736D01*
X14000Y6764D02*
Y7236D01*
X10272Y8272D02*
Y9728D01*
X11728Y8272D02*
Y9728D01*
X10272D02*
X11728D01*
X10272Y8272D02*
X11728D01*
M02*
