%FSLAX24Y24*%
%MOIN*%
G70*
G01*
G75*
G04 Layer_Color=65535*
%ADD10R,0.0551X0.0472*%
%ADD11R,0.0472X0.0551*%
%ADD12O,0.0630X0.0118*%
%ADD13O,0.0118X0.0630*%
%ADD14C,0.0118*%
%ADD15C,0.0394*%
%ADD16C,0.1260*%
%ADD17C,0.0750*%
%ADD18C,0.0098*%
%ADD19C,0.0236*%
%ADD20C,0.0100*%
%ADD21C,0.0079*%
D18*
X10829Y8965D02*
G03*
X10829Y8965I-49J0D01*
G01*
X22829D02*
G03*
X22829Y8965I-49J0D01*
G01*
X34829D02*
G03*
X34829Y8965I-49J0D01*
G01*
X46829D02*
G03*
X46829Y8965I-49J0D01*
G01*
X10829Y20965D02*
G03*
X10829Y20965I-49J0D01*
G01*
X22829D02*
G03*
X22829Y20965I-49J0D01*
G01*
X34829D02*
G03*
X34829Y20965I-49J0D01*
G01*
X46829D02*
G03*
X46829Y20965I-49J0D01*
G01*
X10829Y32965D02*
G03*
X10829Y32965I-49J0D01*
G01*
X22829D02*
G03*
X22829Y32965I-49J0D01*
G01*
X34829D02*
G03*
X34829Y32965I-49J0D01*
G01*
X46829D02*
G03*
X46829Y32965I-49J0D01*
G01*
D19*
X11783Y8335D02*
G03*
X11783Y8335I-118J0D01*
G01*
X23783D02*
G03*
X23783Y8335I-118J0D01*
G01*
X35783D02*
G03*
X35783Y8335I-118J0D01*
G01*
X47783D02*
G03*
X47783Y8335I-118J0D01*
G01*
X11783Y20335D02*
G03*
X11783Y20335I-118J0D01*
G01*
X23783D02*
G03*
X23783Y20335I-118J0D01*
G01*
X35783D02*
G03*
X35783Y20335I-118J0D01*
G01*
X47783D02*
G03*
X47783Y20335I-118J0D01*
G01*
X11783Y32335D02*
G03*
X11783Y32335I-118J0D01*
G01*
X23783D02*
G03*
X23783Y32335I-118J0D01*
G01*
X35783D02*
G03*
X35783Y32335I-118J0D01*
G01*
X47783D02*
G03*
X47783Y32335I-118J0D01*
G01*
D20*
X8000Y13000D02*
X16000D01*
Y12000D02*
Y13000D01*
X8000Y12000D02*
X16000D01*
X8000D02*
Y13000D01*
X7000Y4000D02*
Y12000D01*
X8000D01*
Y4000D02*
Y12000D01*
X7000Y4000D02*
X8000D01*
X17000D02*
Y12000D01*
X16000Y4000D02*
X17000D01*
X16000D02*
Y12000D01*
X17000D01*
X8000Y3000D02*
X16000D01*
X8000D02*
Y4000D01*
X16000D01*
Y3000D02*
Y4000D01*
X15530Y13460D02*
X15630Y13360D01*
X15830D01*
X15930Y13460D01*
Y13860D01*
X15830Y13960D01*
X15630D01*
X15530Y13860D01*
X15230Y13960D02*
X15030D01*
X14930Y13860D01*
Y13660D01*
X15030Y13560D01*
X15230D01*
X15330Y13660D01*
Y13860D01*
X15230Y13960D01*
X14730D02*
Y13560D01*
X14430D01*
X14331Y13660D01*
Y13960D01*
X14031Y13460D02*
Y13560D01*
X14131D01*
X13931D01*
X14031D01*
Y13860D01*
X13931Y13960D01*
X13631Y13560D02*
Y13960D01*
Y13760D01*
X13531Y13660D01*
X13431Y13560D01*
X13331D01*
X12931Y13960D02*
X12731D01*
X12631Y13860D01*
Y13660D01*
X12731Y13560D01*
X12931D01*
X13031Y13660D01*
Y13860D01*
X12931Y13960D01*
X12431D02*
X12231D01*
X12331D01*
Y13360D01*
X12431D01*
X11331D02*
X11132D01*
X11232D01*
Y13960D01*
X11331D01*
X11132D01*
X10532Y13360D02*
X10732D01*
X10832Y13460D01*
Y13860D01*
X10732Y13960D01*
X10532D01*
X10432Y13860D01*
Y13460D01*
X10532Y13360D01*
X9790Y8670D02*
X9690Y8770D01*
X9490D01*
X9390Y8670D01*
Y8270D01*
X9490Y8170D01*
X9690D01*
X9790Y8270D01*
X9990Y8070D02*
X10390D01*
X10590Y8170D02*
Y8570D01*
X10790Y8770D01*
X10989Y8570D01*
Y8170D01*
Y8470D01*
X10590D01*
X11189Y8770D02*
Y8370D01*
X11389Y8170D01*
X11589Y8370D01*
Y8770D01*
X11789D02*
Y8170D01*
X12089D01*
X12189Y8270D01*
Y8670D01*
X12089Y8770D01*
X11789D01*
X12389D02*
Y8170D01*
X12689D01*
X12789Y8270D01*
Y8670D01*
X12689Y8770D01*
X12389D01*
X12989Y8070D02*
X13389D01*
X13589Y8670D02*
X13689Y8770D01*
X13889D01*
X13989Y8670D01*
Y8270D01*
X13889Y8170D01*
X13689D01*
X13589Y8270D01*
Y8670D01*
X14188Y8170D02*
Y8270D01*
X14288D01*
Y8170D01*
X14188D01*
X14688D02*
X14888D01*
X14788D01*
Y8770D01*
X14688Y8670D01*
X15188Y8570D02*
Y8270D01*
X15288Y8170D01*
X15588D01*
Y8570D01*
X10020Y6100D02*
X9920Y6200D01*
X9720D01*
X9620Y6100D01*
Y5700D01*
X9720Y5600D01*
X9920D01*
X10020Y5700D01*
X10220Y5500D02*
X10620D01*
X10820Y6200D02*
Y5600D01*
X11120D01*
X11219Y5700D01*
Y6100D01*
X11120Y6200D01*
X10820D01*
X11419D02*
Y5800D01*
X11619Y5600D01*
X11819Y5800D01*
Y6200D01*
X12019D02*
Y5600D01*
X12319D01*
X12419Y5700D01*
Y6100D01*
X12319Y6200D01*
X12019D01*
X12619D02*
Y5600D01*
X12919D01*
X13019Y5700D01*
Y6100D01*
X12919Y6200D01*
X12619D01*
X13219Y5500D02*
X13619D01*
X13819Y6100D02*
X13919Y6200D01*
X14119D01*
X14219Y6100D01*
Y5700D01*
X14119Y5600D01*
X13919D01*
X13819Y5700D01*
Y6100D01*
X14418Y5600D02*
Y5700D01*
X14518D01*
Y5600D01*
X14418D01*
X14918D02*
X15118D01*
X15018D01*
Y6200D01*
X14918Y6100D01*
X15418Y6000D02*
Y5700D01*
X15518Y5600D01*
X15818D01*
Y6000D01*
X10520Y7340D02*
X10420Y7440D01*
X10220D01*
X10120Y7340D01*
Y6940D01*
X10220Y6840D01*
X10420D01*
X10520Y6940D01*
X10720Y6740D02*
X11120D01*
X11320Y6840D02*
Y7240D01*
X11520Y7440D01*
X11719Y7240D01*
Y6840D01*
Y7140D01*
X11320D01*
X11919Y7440D02*
Y7040D01*
X12119Y6840D01*
X12319Y7040D01*
Y7440D01*
X12519D02*
Y6840D01*
X12819D01*
X12919Y6940D01*
Y7340D01*
X12819Y7440D01*
X12519D01*
X13119D02*
Y6840D01*
X13419D01*
X13519Y6940D01*
Y7340D01*
X13419Y7440D01*
X13119D01*
X13719Y6740D02*
X14119D01*
X14319Y6840D02*
X14519D01*
X14419D01*
Y7440D01*
X14319Y7340D01*
X14818D02*
X14918Y7440D01*
X15118D01*
X15218Y7340D01*
Y6940D01*
X15118Y6840D01*
X14918D01*
X14818Y6940D01*
Y7340D01*
X15418Y7240D02*
Y6940D01*
X15518Y6840D01*
X15818D01*
Y7240D01*
X10070Y4770D02*
X9970Y4870D01*
X9770D01*
X9670Y4770D01*
Y4370D01*
X9770Y4270D01*
X9970D01*
X10070Y4370D01*
X10270Y4170D02*
X10670D01*
X10870Y4870D02*
Y4270D01*
X11170D01*
X11269Y4370D01*
Y4770D01*
X11170Y4870D01*
X10870D01*
X11469D02*
Y4470D01*
X11669Y4270D01*
X11869Y4470D01*
Y4870D01*
X12069D02*
Y4270D01*
X12369D01*
X12469Y4370D01*
Y4770D01*
X12369Y4870D01*
X12069D01*
X12669D02*
Y4270D01*
X12969D01*
X13069Y4370D01*
Y4770D01*
X12969Y4870D01*
X12669D01*
X13269Y4170D02*
X13669D01*
X13869Y4270D02*
X14069D01*
X13969D01*
Y4870D01*
X13869Y4770D01*
X14368D02*
X14468Y4870D01*
X14668D01*
X14768Y4770D01*
Y4370D01*
X14668Y4270D01*
X14468D01*
X14368Y4370D01*
Y4770D01*
X14968Y4670D02*
Y4370D01*
X15068Y4270D01*
X15368D01*
Y4670D01*
X7440Y10560D02*
Y9960D01*
X7740D01*
X7840Y10060D01*
Y10460D01*
X7740Y10560D01*
X7440D01*
X8040Y9960D02*
Y10360D01*
X8240Y10560D01*
X8440Y10360D01*
Y9960D01*
Y10260D01*
X8040D01*
X9039Y10460D02*
X8940Y10560D01*
X8740D01*
X8640Y10460D01*
Y10060D01*
X8740Y9960D01*
X8940D01*
X9039Y10060D01*
X9239Y10460D02*
X9339Y10560D01*
X9539D01*
X9639Y10460D01*
Y10360D01*
X9539Y10260D01*
X9639Y10160D01*
Y10060D01*
X9539Y9960D01*
X9339D01*
X9239Y10060D01*
Y10160D01*
X9339Y10260D01*
X9239Y10360D01*
Y10460D01*
X9339Y10260D02*
X9539D01*
X10239Y10560D02*
X9839D01*
Y10260D01*
X10039Y10360D01*
X10139D01*
X10239Y10260D01*
Y10060D01*
X10139Y9960D01*
X9939D01*
X9839Y10060D01*
X10739Y9960D02*
Y10560D01*
X10439Y10260D01*
X10839D01*
X11039Y9960D02*
X11239D01*
X11139D01*
Y10560D01*
X11039Y10460D01*
X11539Y10560D02*
Y10460D01*
X11739Y10260D01*
X11939Y10460D01*
Y10560D01*
X11739Y10260D02*
Y9960D01*
X12138Y10260D02*
X12538D01*
X12738Y9960D02*
Y10560D01*
X13038D01*
X13138Y10460D01*
Y10260D01*
X13038Y10160D01*
X12738D01*
X13338Y10560D02*
Y9960D01*
X13638D01*
X13738Y10060D01*
Y10160D01*
X13638Y10260D01*
X13338D01*
X13638D01*
X13738Y10360D01*
Y10460D01*
X13638Y10560D01*
X13338D01*
X14338Y10460D02*
X14238Y10560D01*
X14038D01*
X13938Y10460D01*
Y10360D01*
X14038Y10260D01*
X14238D01*
X14338Y10160D01*
Y10060D01*
X14238Y9960D01*
X14038D01*
X13938Y10060D01*
X6560Y12010D02*
X5960D01*
Y11710D01*
X6060Y11610D01*
X6460D01*
X6560Y11710D01*
Y12010D01*
Y11410D02*
X5960D01*
Y11110D01*
X6060Y11010D01*
X6160D01*
X6260Y11110D01*
Y11410D01*
Y11110D01*
X6360Y11010D01*
X6460D01*
X6560Y11110D01*
Y11410D01*
X6460Y10810D02*
X6560Y10710D01*
Y10510D01*
X6460Y10411D01*
X6360D01*
X6260Y10510D01*
X6160Y10411D01*
X6060D01*
X5960Y10510D01*
Y10710D01*
X6060Y10810D01*
X6160D01*
X6260Y10710D01*
X6360Y10810D01*
X6460D01*
X6260Y10710D02*
Y10510D01*
X6460Y10211D02*
X6560Y10111D01*
Y9911D01*
X6660Y9811D01*
X5960Y9611D02*
Y9411D01*
Y9511D01*
X6560D01*
X6460Y9611D01*
X6560Y8711D02*
Y9111D01*
X6260D01*
X6360Y8911D01*
Y8811D01*
X6260Y8711D01*
X6060D01*
X5960Y8811D01*
Y9011D01*
X6060Y9111D01*
X17390Y4400D02*
X17290Y4300D01*
Y4100D01*
X17390Y4000D01*
X17490D01*
X17590Y4100D01*
Y4300D01*
X17690Y4400D01*
X17790D01*
X17890Y4300D01*
Y4100D01*
X17790Y4000D01*
X17490Y4600D02*
X17790D01*
X17890Y4700D01*
Y5000D01*
X17490D01*
X18090Y5200D02*
X17490D01*
Y5500D01*
X17590Y5599D01*
X17790D01*
X17890Y5500D01*
Y5200D01*
X18090Y5799D02*
X17490D01*
Y6099D01*
X17590Y6199D01*
X17790D01*
X17890Y6099D01*
Y5799D01*
Y6399D02*
Y6599D01*
Y6499D01*
X17290D01*
Y6399D01*
X17490Y6899D02*
X17790D01*
X17890Y6999D01*
Y7299D01*
X17990D01*
X18090Y7199D01*
Y7099D01*
X17890Y7299D02*
X17490D01*
X17890Y8099D02*
X17290D01*
Y8399D01*
X17390Y8499D01*
X17590D01*
X17690Y8399D01*
Y8099D01*
X17890Y8698D02*
Y8898D01*
Y8798D01*
X17490D01*
Y8698D01*
X17890Y9198D02*
X17490D01*
Y9498D01*
X17590Y9598D01*
X17890D01*
Y9798D02*
Y10098D01*
X17790Y10198D01*
X17690Y10098D01*
Y9898D01*
X17590Y9798D01*
X17490Y9898D01*
Y10198D01*
X7980Y2700D02*
Y2100D01*
X8280D01*
X8380Y2200D01*
Y2600D01*
X8280Y2700D01*
X7980D01*
X8580D02*
Y2100D01*
X8880D01*
X8980Y2200D01*
Y2300D01*
X8880Y2400D01*
X8580D01*
X8880D01*
X8980Y2500D01*
Y2600D01*
X8880Y2700D01*
X8580D01*
X9180Y2600D02*
X9280Y2700D01*
X9480D01*
X9579Y2600D01*
Y2200D01*
X9480Y2100D01*
X9280D01*
X9180Y2200D01*
Y2600D01*
X9779D02*
X9879Y2700D01*
X10079D01*
X10179Y2800D01*
X10379Y2700D02*
X10779D01*
Y2600D01*
X10379Y2200D01*
Y2100D01*
X20000Y13000D02*
X28000D01*
Y12000D02*
Y13000D01*
X20000Y12000D02*
X28000D01*
X20000D02*
Y13000D01*
X19000Y4000D02*
Y12000D01*
X20000D01*
Y4000D02*
Y12000D01*
X19000Y4000D02*
X20000D01*
X29000D02*
Y12000D01*
X28000Y4000D02*
X29000D01*
X28000D02*
Y12000D01*
X29000D01*
X20000Y3000D02*
X28000D01*
X20000D02*
Y4000D01*
X28000D01*
Y3000D02*
Y4000D01*
X27530Y13460D02*
X27630Y13360D01*
X27830D01*
X27930Y13460D01*
Y13860D01*
X27830Y13960D01*
X27630D01*
X27530Y13860D01*
X27230Y13960D02*
X27030D01*
X26930Y13860D01*
Y13660D01*
X27030Y13560D01*
X27230D01*
X27330Y13660D01*
Y13860D01*
X27230Y13960D01*
X26730D02*
Y13560D01*
X26430D01*
X26331Y13660D01*
Y13960D01*
X26031Y13460D02*
Y13560D01*
X26131D01*
X25931D01*
X26031D01*
Y13860D01*
X25931Y13960D01*
X25631Y13560D02*
Y13960D01*
Y13760D01*
X25531Y13660D01*
X25431Y13560D01*
X25331D01*
X24931Y13960D02*
X24731D01*
X24631Y13860D01*
Y13660D01*
X24731Y13560D01*
X24931D01*
X25031Y13660D01*
Y13860D01*
X24931Y13960D01*
X24431D02*
X24231D01*
X24331D01*
Y13360D01*
X24431D01*
X23331D02*
X23132D01*
X23232D01*
Y13960D01*
X23331D01*
X23132D01*
X22532Y13360D02*
X22732D01*
X22832Y13460D01*
Y13860D01*
X22732Y13960D01*
X22532D01*
X22432Y13860D01*
Y13460D01*
X22532Y13360D01*
X21790Y8670D02*
X21690Y8770D01*
X21490D01*
X21390Y8670D01*
Y8270D01*
X21490Y8170D01*
X21690D01*
X21790Y8270D01*
X21990Y8070D02*
X22390D01*
X22590Y8170D02*
Y8570D01*
X22790Y8770D01*
X22989Y8570D01*
Y8170D01*
Y8470D01*
X22590D01*
X23189Y8770D02*
Y8370D01*
X23389Y8170D01*
X23589Y8370D01*
Y8770D01*
X23789D02*
Y8170D01*
X24089D01*
X24189Y8270D01*
Y8670D01*
X24089Y8770D01*
X23789D01*
X24389D02*
Y8170D01*
X24689D01*
X24789Y8270D01*
Y8670D01*
X24689Y8770D01*
X24389D01*
X24989Y8070D02*
X25389D01*
X25589Y8670D02*
X25689Y8770D01*
X25889D01*
X25989Y8670D01*
Y8270D01*
X25889Y8170D01*
X25689D01*
X25589Y8270D01*
Y8670D01*
X26188Y8170D02*
Y8270D01*
X26288D01*
Y8170D01*
X26188D01*
X26688D02*
X26888D01*
X26788D01*
Y8770D01*
X26688Y8670D01*
X27188Y8570D02*
Y8270D01*
X27288Y8170D01*
X27588D01*
Y8570D01*
X22020Y6100D02*
X21920Y6200D01*
X21720D01*
X21620Y6100D01*
Y5700D01*
X21720Y5600D01*
X21920D01*
X22020Y5700D01*
X22220Y5500D02*
X22620D01*
X22820Y6200D02*
Y5600D01*
X23120D01*
X23219Y5700D01*
Y6100D01*
X23120Y6200D01*
X22820D01*
X23419D02*
Y5800D01*
X23619Y5600D01*
X23819Y5800D01*
Y6200D01*
X24019D02*
Y5600D01*
X24319D01*
X24419Y5700D01*
Y6100D01*
X24319Y6200D01*
X24019D01*
X24619D02*
Y5600D01*
X24919D01*
X25019Y5700D01*
Y6100D01*
X24919Y6200D01*
X24619D01*
X25219Y5500D02*
X25619D01*
X25819Y6100D02*
X25919Y6200D01*
X26119D01*
X26219Y6100D01*
Y5700D01*
X26119Y5600D01*
X25919D01*
X25819Y5700D01*
Y6100D01*
X26418Y5600D02*
Y5700D01*
X26518D01*
Y5600D01*
X26418D01*
X26918D02*
X27118D01*
X27018D01*
Y6200D01*
X26918Y6100D01*
X27418Y6000D02*
Y5700D01*
X27518Y5600D01*
X27818D01*
Y6000D01*
X22520Y7340D02*
X22420Y7440D01*
X22220D01*
X22120Y7340D01*
Y6940D01*
X22220Y6840D01*
X22420D01*
X22520Y6940D01*
X22720Y6740D02*
X23120D01*
X23320Y6840D02*
Y7240D01*
X23520Y7440D01*
X23719Y7240D01*
Y6840D01*
Y7140D01*
X23320D01*
X23919Y7440D02*
Y7040D01*
X24119Y6840D01*
X24319Y7040D01*
Y7440D01*
X24519D02*
Y6840D01*
X24819D01*
X24919Y6940D01*
Y7340D01*
X24819Y7440D01*
X24519D01*
X25119D02*
Y6840D01*
X25419D01*
X25519Y6940D01*
Y7340D01*
X25419Y7440D01*
X25119D01*
X25719Y6740D02*
X26119D01*
X26319Y6840D02*
X26519D01*
X26419D01*
Y7440D01*
X26319Y7340D01*
X26818D02*
X26918Y7440D01*
X27118D01*
X27218Y7340D01*
Y6940D01*
X27118Y6840D01*
X26918D01*
X26818Y6940D01*
Y7340D01*
X27418Y7240D02*
Y6940D01*
X27518Y6840D01*
X27818D01*
Y7240D01*
X22070Y4770D02*
X21970Y4870D01*
X21770D01*
X21670Y4770D01*
Y4370D01*
X21770Y4270D01*
X21970D01*
X22070Y4370D01*
X22270Y4170D02*
X22670D01*
X22870Y4870D02*
Y4270D01*
X23170D01*
X23269Y4370D01*
Y4770D01*
X23170Y4870D01*
X22870D01*
X23469D02*
Y4470D01*
X23669Y4270D01*
X23869Y4470D01*
Y4870D01*
X24069D02*
Y4270D01*
X24369D01*
X24469Y4370D01*
Y4770D01*
X24369Y4870D01*
X24069D01*
X24669D02*
Y4270D01*
X24969D01*
X25069Y4370D01*
Y4770D01*
X24969Y4870D01*
X24669D01*
X25269Y4170D02*
X25669D01*
X25869Y4270D02*
X26069D01*
X25969D01*
Y4870D01*
X25869Y4770D01*
X26368D02*
X26468Y4870D01*
X26668D01*
X26768Y4770D01*
Y4370D01*
X26668Y4270D01*
X26468D01*
X26368Y4370D01*
Y4770D01*
X26968Y4670D02*
Y4370D01*
X27068Y4270D01*
X27368D01*
Y4670D01*
X19440Y10560D02*
Y9960D01*
X19740D01*
X19840Y10060D01*
Y10460D01*
X19740Y10560D01*
X19440D01*
X20040Y9960D02*
Y10360D01*
X20240Y10560D01*
X20440Y10360D01*
Y9960D01*
Y10260D01*
X20040D01*
X21039Y10460D02*
X20940Y10560D01*
X20740D01*
X20640Y10460D01*
Y10060D01*
X20740Y9960D01*
X20940D01*
X21039Y10060D01*
X21239Y10460D02*
X21339Y10560D01*
X21539D01*
X21639Y10460D01*
Y10360D01*
X21539Y10260D01*
X21639Y10160D01*
Y10060D01*
X21539Y9960D01*
X21339D01*
X21239Y10060D01*
Y10160D01*
X21339Y10260D01*
X21239Y10360D01*
Y10460D01*
X21339Y10260D02*
X21539D01*
X22239Y10560D02*
X21839D01*
Y10260D01*
X22039Y10360D01*
X22139D01*
X22239Y10260D01*
Y10060D01*
X22139Y9960D01*
X21939D01*
X21839Y10060D01*
X22739Y9960D02*
Y10560D01*
X22439Y10260D01*
X22839D01*
X23039Y9960D02*
X23239D01*
X23139D01*
Y10560D01*
X23039Y10460D01*
X23539Y10560D02*
Y10460D01*
X23739Y10260D01*
X23939Y10460D01*
Y10560D01*
X23739Y10260D02*
Y9960D01*
X24138Y10260D02*
X24538D01*
X24738Y9960D02*
Y10560D01*
X25038D01*
X25138Y10460D01*
Y10260D01*
X25038Y10160D01*
X24738D01*
X25338Y10560D02*
Y9960D01*
X25638D01*
X25738Y10060D01*
Y10160D01*
X25638Y10260D01*
X25338D01*
X25638D01*
X25738Y10360D01*
Y10460D01*
X25638Y10560D01*
X25338D01*
X26338Y10460D02*
X26238Y10560D01*
X26038D01*
X25938Y10460D01*
Y10360D01*
X26038Y10260D01*
X26238D01*
X26338Y10160D01*
Y10060D01*
X26238Y9960D01*
X26038D01*
X25938Y10060D01*
X18560Y12010D02*
X17960D01*
Y11710D01*
X18060Y11610D01*
X18460D01*
X18560Y11710D01*
Y12010D01*
Y11410D02*
X17960D01*
Y11110D01*
X18060Y11010D01*
X18160D01*
X18260Y11110D01*
Y11410D01*
Y11110D01*
X18360Y11010D01*
X18460D01*
X18560Y11110D01*
Y11410D01*
X18460Y10810D02*
X18560Y10710D01*
Y10510D01*
X18460Y10411D01*
X18360D01*
X18260Y10510D01*
X18160Y10411D01*
X18060D01*
X17960Y10510D01*
Y10710D01*
X18060Y10810D01*
X18160D01*
X18260Y10710D01*
X18360Y10810D01*
X18460D01*
X18260Y10710D02*
Y10510D01*
X18460Y10211D02*
X18560Y10111D01*
Y9911D01*
X18660Y9811D01*
X17960Y9611D02*
Y9411D01*
Y9511D01*
X18560D01*
X18460Y9611D01*
X18560Y8711D02*
Y9111D01*
X18260D01*
X18360Y8911D01*
Y8811D01*
X18260Y8711D01*
X18060D01*
X17960Y8811D01*
Y9011D01*
X18060Y9111D01*
X29390Y4400D02*
X29290Y4300D01*
Y4100D01*
X29390Y4000D01*
X29490D01*
X29590Y4100D01*
Y4300D01*
X29690Y4400D01*
X29790D01*
X29890Y4300D01*
Y4100D01*
X29790Y4000D01*
X29490Y4600D02*
X29790D01*
X29890Y4700D01*
Y5000D01*
X29490D01*
X30090Y5200D02*
X29490D01*
Y5500D01*
X29590Y5599D01*
X29790D01*
X29890Y5500D01*
Y5200D01*
X30090Y5799D02*
X29490D01*
Y6099D01*
X29590Y6199D01*
X29790D01*
X29890Y6099D01*
Y5799D01*
Y6399D02*
Y6599D01*
Y6499D01*
X29290D01*
Y6399D01*
X29490Y6899D02*
X29790D01*
X29890Y6999D01*
Y7299D01*
X29990D01*
X30090Y7199D01*
Y7099D01*
X29890Y7299D02*
X29490D01*
X29890Y8099D02*
X29290D01*
Y8399D01*
X29390Y8499D01*
X29590D01*
X29690Y8399D01*
Y8099D01*
X29890Y8698D02*
Y8898D01*
Y8798D01*
X29490D01*
Y8698D01*
X29890Y9198D02*
X29490D01*
Y9498D01*
X29590Y9598D01*
X29890D01*
Y9798D02*
Y10098D01*
X29790Y10198D01*
X29690Y10098D01*
Y9898D01*
X29590Y9798D01*
X29490Y9898D01*
Y10198D01*
X19980Y2700D02*
Y2100D01*
X20280D01*
X20380Y2200D01*
Y2600D01*
X20280Y2700D01*
X19980D01*
X20580D02*
Y2100D01*
X20880D01*
X20980Y2200D01*
Y2300D01*
X20880Y2400D01*
X20580D01*
X20880D01*
X20980Y2500D01*
Y2600D01*
X20880Y2700D01*
X20580D01*
X21180Y2600D02*
X21280Y2700D01*
X21480D01*
X21579Y2600D01*
Y2200D01*
X21480Y2100D01*
X21280D01*
X21180Y2200D01*
Y2600D01*
X21779D02*
X21879Y2700D01*
X22079D01*
X22179Y2800D01*
X22379Y2700D02*
X22779D01*
Y2600D01*
X22379Y2200D01*
Y2100D01*
X32000Y13000D02*
X40000D01*
Y12000D02*
Y13000D01*
X32000Y12000D02*
X40000D01*
X32000D02*
Y13000D01*
X31000Y4000D02*
Y12000D01*
X32000D01*
Y4000D02*
Y12000D01*
X31000Y4000D02*
X32000D01*
X41000D02*
Y12000D01*
X40000Y4000D02*
X41000D01*
X40000D02*
Y12000D01*
X41000D01*
X32000Y3000D02*
X40000D01*
X32000D02*
Y4000D01*
X40000D01*
Y3000D02*
Y4000D01*
X39530Y13460D02*
X39630Y13360D01*
X39830D01*
X39930Y13460D01*
Y13860D01*
X39830Y13960D01*
X39630D01*
X39530Y13860D01*
X39230Y13960D02*
X39030D01*
X38930Y13860D01*
Y13660D01*
X39030Y13560D01*
X39230D01*
X39330Y13660D01*
Y13860D01*
X39230Y13960D01*
X38730D02*
Y13560D01*
X38430D01*
X38331Y13660D01*
Y13960D01*
X38031Y13460D02*
Y13560D01*
X38131D01*
X37931D01*
X38031D01*
Y13860D01*
X37931Y13960D01*
X37631Y13560D02*
Y13960D01*
Y13760D01*
X37531Y13660D01*
X37431Y13560D01*
X37331D01*
X36931Y13960D02*
X36731D01*
X36631Y13860D01*
Y13660D01*
X36731Y13560D01*
X36931D01*
X37031Y13660D01*
Y13860D01*
X36931Y13960D01*
X36431D02*
X36231D01*
X36331D01*
Y13360D01*
X36431D01*
X35331D02*
X35132D01*
X35232D01*
Y13960D01*
X35331D01*
X35132D01*
X34532Y13360D02*
X34732D01*
X34832Y13460D01*
Y13860D01*
X34732Y13960D01*
X34532D01*
X34432Y13860D01*
Y13460D01*
X34532Y13360D01*
X33790Y8670D02*
X33690Y8770D01*
X33490D01*
X33390Y8670D01*
Y8270D01*
X33490Y8170D01*
X33690D01*
X33790Y8270D01*
X33990Y8070D02*
X34390D01*
X34590Y8170D02*
Y8570D01*
X34790Y8770D01*
X34989Y8570D01*
Y8170D01*
Y8470D01*
X34590D01*
X35189Y8770D02*
Y8370D01*
X35389Y8170D01*
X35589Y8370D01*
Y8770D01*
X35789D02*
Y8170D01*
X36089D01*
X36189Y8270D01*
Y8670D01*
X36089Y8770D01*
X35789D01*
X36389D02*
Y8170D01*
X36689D01*
X36789Y8270D01*
Y8670D01*
X36689Y8770D01*
X36389D01*
X36989Y8070D02*
X37389D01*
X37589Y8670D02*
X37689Y8770D01*
X37889D01*
X37989Y8670D01*
Y8270D01*
X37889Y8170D01*
X37689D01*
X37589Y8270D01*
Y8670D01*
X38188Y8170D02*
Y8270D01*
X38288D01*
Y8170D01*
X38188D01*
X38688D02*
X38888D01*
X38788D01*
Y8770D01*
X38688Y8670D01*
X39188Y8570D02*
Y8270D01*
X39288Y8170D01*
X39588D01*
Y8570D01*
X34020Y6100D02*
X33920Y6200D01*
X33720D01*
X33620Y6100D01*
Y5700D01*
X33720Y5600D01*
X33920D01*
X34020Y5700D01*
X34220Y5500D02*
X34620D01*
X34820Y6200D02*
Y5600D01*
X35120D01*
X35219Y5700D01*
Y6100D01*
X35120Y6200D01*
X34820D01*
X35419D02*
Y5800D01*
X35619Y5600D01*
X35819Y5800D01*
Y6200D01*
X36019D02*
Y5600D01*
X36319D01*
X36419Y5700D01*
Y6100D01*
X36319Y6200D01*
X36019D01*
X36619D02*
Y5600D01*
X36919D01*
X37019Y5700D01*
Y6100D01*
X36919Y6200D01*
X36619D01*
X37219Y5500D02*
X37619D01*
X37819Y6100D02*
X37919Y6200D01*
X38119D01*
X38219Y6100D01*
Y5700D01*
X38119Y5600D01*
X37919D01*
X37819Y5700D01*
Y6100D01*
X38418Y5600D02*
Y5700D01*
X38518D01*
Y5600D01*
X38418D01*
X38918D02*
X39118D01*
X39018D01*
Y6200D01*
X38918Y6100D01*
X39418Y6000D02*
Y5700D01*
X39518Y5600D01*
X39818D01*
Y6000D01*
X34520Y7340D02*
X34420Y7440D01*
X34220D01*
X34120Y7340D01*
Y6940D01*
X34220Y6840D01*
X34420D01*
X34520Y6940D01*
X34720Y6740D02*
X35120D01*
X35320Y6840D02*
Y7240D01*
X35520Y7440D01*
X35719Y7240D01*
Y6840D01*
Y7140D01*
X35320D01*
X35919Y7440D02*
Y7040D01*
X36119Y6840D01*
X36319Y7040D01*
Y7440D01*
X36519D02*
Y6840D01*
X36819D01*
X36919Y6940D01*
Y7340D01*
X36819Y7440D01*
X36519D01*
X37119D02*
Y6840D01*
X37419D01*
X37519Y6940D01*
Y7340D01*
X37419Y7440D01*
X37119D01*
X37719Y6740D02*
X38119D01*
X38319Y6840D02*
X38519D01*
X38419D01*
Y7440D01*
X38319Y7340D01*
X38818D02*
X38918Y7440D01*
X39118D01*
X39218Y7340D01*
Y6940D01*
X39118Y6840D01*
X38918D01*
X38818Y6940D01*
Y7340D01*
X39418Y7240D02*
Y6940D01*
X39518Y6840D01*
X39818D01*
Y7240D01*
X34070Y4770D02*
X33970Y4870D01*
X33770D01*
X33670Y4770D01*
Y4370D01*
X33770Y4270D01*
X33970D01*
X34070Y4370D01*
X34270Y4170D02*
X34670D01*
X34870Y4870D02*
Y4270D01*
X35170D01*
X35269Y4370D01*
Y4770D01*
X35170Y4870D01*
X34870D01*
X35469D02*
Y4470D01*
X35669Y4270D01*
X35869Y4470D01*
Y4870D01*
X36069D02*
Y4270D01*
X36369D01*
X36469Y4370D01*
Y4770D01*
X36369Y4870D01*
X36069D01*
X36669D02*
Y4270D01*
X36969D01*
X37069Y4370D01*
Y4770D01*
X36969Y4870D01*
X36669D01*
X37269Y4170D02*
X37669D01*
X37869Y4270D02*
X38069D01*
X37969D01*
Y4870D01*
X37869Y4770D01*
X38368D02*
X38468Y4870D01*
X38668D01*
X38768Y4770D01*
Y4370D01*
X38668Y4270D01*
X38468D01*
X38368Y4370D01*
Y4770D01*
X38968Y4670D02*
Y4370D01*
X39068Y4270D01*
X39368D01*
Y4670D01*
X31440Y10560D02*
Y9960D01*
X31740D01*
X31840Y10060D01*
Y10460D01*
X31740Y10560D01*
X31440D01*
X32040Y9960D02*
Y10360D01*
X32240Y10560D01*
X32440Y10360D01*
Y9960D01*
Y10260D01*
X32040D01*
X33039Y10460D02*
X32940Y10560D01*
X32740D01*
X32640Y10460D01*
Y10060D01*
X32740Y9960D01*
X32940D01*
X33039Y10060D01*
X33239Y10460D02*
X33339Y10560D01*
X33539D01*
X33639Y10460D01*
Y10360D01*
X33539Y10260D01*
X33639Y10160D01*
Y10060D01*
X33539Y9960D01*
X33339D01*
X33239Y10060D01*
Y10160D01*
X33339Y10260D01*
X33239Y10360D01*
Y10460D01*
X33339Y10260D02*
X33539D01*
X34239Y10560D02*
X33839D01*
Y10260D01*
X34039Y10360D01*
X34139D01*
X34239Y10260D01*
Y10060D01*
X34139Y9960D01*
X33939D01*
X33839Y10060D01*
X34739Y9960D02*
Y10560D01*
X34439Y10260D01*
X34839D01*
X35039Y9960D02*
X35239D01*
X35139D01*
Y10560D01*
X35039Y10460D01*
X35539Y10560D02*
Y10460D01*
X35739Y10260D01*
X35939Y10460D01*
Y10560D01*
X35739Y10260D02*
Y9960D01*
X36138Y10260D02*
X36538D01*
X36738Y9960D02*
Y10560D01*
X37038D01*
X37138Y10460D01*
Y10260D01*
X37038Y10160D01*
X36738D01*
X37338Y10560D02*
Y9960D01*
X37638D01*
X37738Y10060D01*
Y10160D01*
X37638Y10260D01*
X37338D01*
X37638D01*
X37738Y10360D01*
Y10460D01*
X37638Y10560D01*
X37338D01*
X38338Y10460D02*
X38238Y10560D01*
X38038D01*
X37938Y10460D01*
Y10360D01*
X38038Y10260D01*
X38238D01*
X38338Y10160D01*
Y10060D01*
X38238Y9960D01*
X38038D01*
X37938Y10060D01*
X30560Y12010D02*
X29960D01*
Y11710D01*
X30060Y11610D01*
X30460D01*
X30560Y11710D01*
Y12010D01*
Y11410D02*
X29960D01*
Y11110D01*
X30060Y11010D01*
X30160D01*
X30260Y11110D01*
Y11410D01*
Y11110D01*
X30360Y11010D01*
X30460D01*
X30560Y11110D01*
Y11410D01*
X30460Y10810D02*
X30560Y10710D01*
Y10510D01*
X30460Y10411D01*
X30360D01*
X30260Y10510D01*
X30160Y10411D01*
X30060D01*
X29960Y10510D01*
Y10710D01*
X30060Y10810D01*
X30160D01*
X30260Y10710D01*
X30360Y10810D01*
X30460D01*
X30260Y10710D02*
Y10510D01*
X30460Y10211D02*
X30560Y10111D01*
Y9911D01*
X30660Y9811D01*
X29960Y9611D02*
Y9411D01*
Y9511D01*
X30560D01*
X30460Y9611D01*
X30560Y8711D02*
Y9111D01*
X30260D01*
X30360Y8911D01*
Y8811D01*
X30260Y8711D01*
X30060D01*
X29960Y8811D01*
Y9011D01*
X30060Y9111D01*
X41390Y4400D02*
X41290Y4300D01*
Y4100D01*
X41390Y4000D01*
X41490D01*
X41590Y4100D01*
Y4300D01*
X41690Y4400D01*
X41790D01*
X41890Y4300D01*
Y4100D01*
X41790Y4000D01*
X41490Y4600D02*
X41790D01*
X41890Y4700D01*
Y5000D01*
X41490D01*
X42090Y5200D02*
X41490D01*
Y5500D01*
X41590Y5599D01*
X41790D01*
X41890Y5500D01*
Y5200D01*
X42090Y5799D02*
X41490D01*
Y6099D01*
X41590Y6199D01*
X41790D01*
X41890Y6099D01*
Y5799D01*
Y6399D02*
Y6599D01*
Y6499D01*
X41290D01*
Y6399D01*
X41490Y6899D02*
X41790D01*
X41890Y6999D01*
Y7299D01*
X41990D01*
X42090Y7199D01*
Y7099D01*
X41890Y7299D02*
X41490D01*
X41890Y8099D02*
X41290D01*
Y8399D01*
X41390Y8499D01*
X41590D01*
X41690Y8399D01*
Y8099D01*
X41890Y8698D02*
Y8898D01*
Y8798D01*
X41490D01*
Y8698D01*
X41890Y9198D02*
X41490D01*
Y9498D01*
X41590Y9598D01*
X41890D01*
Y9798D02*
Y10098D01*
X41790Y10198D01*
X41690Y10098D01*
Y9898D01*
X41590Y9798D01*
X41490Y9898D01*
Y10198D01*
X31980Y2700D02*
Y2100D01*
X32280D01*
X32380Y2200D01*
Y2600D01*
X32280Y2700D01*
X31980D01*
X32580D02*
Y2100D01*
X32880D01*
X32980Y2200D01*
Y2300D01*
X32880Y2400D01*
X32580D01*
X32880D01*
X32980Y2500D01*
Y2600D01*
X32880Y2700D01*
X32580D01*
X33180Y2600D02*
X33280Y2700D01*
X33480D01*
X33579Y2600D01*
Y2200D01*
X33480Y2100D01*
X33280D01*
X33180Y2200D01*
Y2600D01*
X33779D02*
X33879Y2700D01*
X34079D01*
X34179Y2800D01*
X34379Y2700D02*
X34779D01*
Y2600D01*
X34379Y2200D01*
Y2100D01*
X44000Y13000D02*
X52000D01*
Y12000D02*
Y13000D01*
X44000Y12000D02*
X52000D01*
X44000D02*
Y13000D01*
X43000Y4000D02*
Y12000D01*
X44000D01*
Y4000D02*
Y12000D01*
X43000Y4000D02*
X44000D01*
X53000D02*
Y12000D01*
X52000Y4000D02*
X53000D01*
X52000D02*
Y12000D01*
X53000D01*
X44000Y3000D02*
X52000D01*
X44000D02*
Y4000D01*
X52000D01*
Y3000D02*
Y4000D01*
X51530Y13460D02*
X51630Y13360D01*
X51830D01*
X51930Y13460D01*
Y13860D01*
X51830Y13960D01*
X51630D01*
X51530Y13860D01*
X51230Y13960D02*
X51030D01*
X50930Y13860D01*
Y13660D01*
X51030Y13560D01*
X51230D01*
X51330Y13660D01*
Y13860D01*
X51230Y13960D01*
X50730D02*
Y13560D01*
X50430D01*
X50331Y13660D01*
Y13960D01*
X50031Y13460D02*
Y13560D01*
X50131D01*
X49931D01*
X50031D01*
Y13860D01*
X49931Y13960D01*
X49631Y13560D02*
Y13960D01*
Y13760D01*
X49531Y13660D01*
X49431Y13560D01*
X49331D01*
X48931Y13960D02*
X48731D01*
X48631Y13860D01*
Y13660D01*
X48731Y13560D01*
X48931D01*
X49031Y13660D01*
Y13860D01*
X48931Y13960D01*
X48431D02*
X48231D01*
X48331D01*
Y13360D01*
X48431D01*
X47331D02*
X47132D01*
X47232D01*
Y13960D01*
X47331D01*
X47132D01*
X46532Y13360D02*
X46732D01*
X46832Y13460D01*
Y13860D01*
X46732Y13960D01*
X46532D01*
X46432Y13860D01*
Y13460D01*
X46532Y13360D01*
X45790Y8670D02*
X45690Y8770D01*
X45490D01*
X45390Y8670D01*
Y8270D01*
X45490Y8170D01*
X45690D01*
X45790Y8270D01*
X45990Y8070D02*
X46390D01*
X46590Y8170D02*
Y8570D01*
X46790Y8770D01*
X46989Y8570D01*
Y8170D01*
Y8470D01*
X46590D01*
X47189Y8770D02*
Y8370D01*
X47389Y8170D01*
X47589Y8370D01*
Y8770D01*
X47789D02*
Y8170D01*
X48089D01*
X48189Y8270D01*
Y8670D01*
X48089Y8770D01*
X47789D01*
X48389D02*
Y8170D01*
X48689D01*
X48789Y8270D01*
Y8670D01*
X48689Y8770D01*
X48389D01*
X48989Y8070D02*
X49389D01*
X49589Y8670D02*
X49689Y8770D01*
X49889D01*
X49989Y8670D01*
Y8270D01*
X49889Y8170D01*
X49689D01*
X49589Y8270D01*
Y8670D01*
X50188Y8170D02*
Y8270D01*
X50288D01*
Y8170D01*
X50188D01*
X50688D02*
X50888D01*
X50788D01*
Y8770D01*
X50688Y8670D01*
X51188Y8570D02*
Y8270D01*
X51288Y8170D01*
X51588D01*
Y8570D01*
X46020Y6100D02*
X45920Y6200D01*
X45720D01*
X45620Y6100D01*
Y5700D01*
X45720Y5600D01*
X45920D01*
X46020Y5700D01*
X46220Y5500D02*
X46620D01*
X46820Y6200D02*
Y5600D01*
X47120D01*
X47219Y5700D01*
Y6100D01*
X47120Y6200D01*
X46820D01*
X47419D02*
Y5800D01*
X47619Y5600D01*
X47819Y5800D01*
Y6200D01*
X48019D02*
Y5600D01*
X48319D01*
X48419Y5700D01*
Y6100D01*
X48319Y6200D01*
X48019D01*
X48619D02*
Y5600D01*
X48919D01*
X49019Y5700D01*
Y6100D01*
X48919Y6200D01*
X48619D01*
X49219Y5500D02*
X49619D01*
X49819Y6100D02*
X49919Y6200D01*
X50119D01*
X50219Y6100D01*
Y5700D01*
X50119Y5600D01*
X49919D01*
X49819Y5700D01*
Y6100D01*
X50418Y5600D02*
Y5700D01*
X50518D01*
Y5600D01*
X50418D01*
X50918D02*
X51118D01*
X51018D01*
Y6200D01*
X50918Y6100D01*
X51418Y6000D02*
Y5700D01*
X51518Y5600D01*
X51818D01*
Y6000D01*
X46520Y7340D02*
X46420Y7440D01*
X46220D01*
X46120Y7340D01*
Y6940D01*
X46220Y6840D01*
X46420D01*
X46520Y6940D01*
X46720Y6740D02*
X47120D01*
X47320Y6840D02*
Y7240D01*
X47520Y7440D01*
X47719Y7240D01*
Y6840D01*
Y7140D01*
X47320D01*
X47919Y7440D02*
Y7040D01*
X48119Y6840D01*
X48319Y7040D01*
Y7440D01*
X48519D02*
Y6840D01*
X48819D01*
X48919Y6940D01*
Y7340D01*
X48819Y7440D01*
X48519D01*
X49119D02*
Y6840D01*
X49419D01*
X49519Y6940D01*
Y7340D01*
X49419Y7440D01*
X49119D01*
X49719Y6740D02*
X50119D01*
X50319Y6840D02*
X50519D01*
X50419D01*
Y7440D01*
X50319Y7340D01*
X50818D02*
X50918Y7440D01*
X51118D01*
X51218Y7340D01*
Y6940D01*
X51118Y6840D01*
X50918D01*
X50818Y6940D01*
Y7340D01*
X51418Y7240D02*
Y6940D01*
X51518Y6840D01*
X51818D01*
Y7240D01*
X46070Y4770D02*
X45970Y4870D01*
X45770D01*
X45670Y4770D01*
Y4370D01*
X45770Y4270D01*
X45970D01*
X46070Y4370D01*
X46270Y4170D02*
X46670D01*
X46870Y4870D02*
Y4270D01*
X47170D01*
X47269Y4370D01*
Y4770D01*
X47170Y4870D01*
X46870D01*
X47469D02*
Y4470D01*
X47669Y4270D01*
X47869Y4470D01*
Y4870D01*
X48069D02*
Y4270D01*
X48369D01*
X48469Y4370D01*
Y4770D01*
X48369Y4870D01*
X48069D01*
X48669D02*
Y4270D01*
X48969D01*
X49069Y4370D01*
Y4770D01*
X48969Y4870D01*
X48669D01*
X49269Y4170D02*
X49669D01*
X49869Y4270D02*
X50069D01*
X49969D01*
Y4870D01*
X49869Y4770D01*
X50368D02*
X50468Y4870D01*
X50668D01*
X50768Y4770D01*
Y4370D01*
X50668Y4270D01*
X50468D01*
X50368Y4370D01*
Y4770D01*
X50968Y4670D02*
Y4370D01*
X51068Y4270D01*
X51368D01*
Y4670D01*
X43440Y10560D02*
Y9960D01*
X43740D01*
X43840Y10060D01*
Y10460D01*
X43740Y10560D01*
X43440D01*
X44040Y9960D02*
Y10360D01*
X44240Y10560D01*
X44440Y10360D01*
Y9960D01*
Y10260D01*
X44040D01*
X45039Y10460D02*
X44940Y10560D01*
X44740D01*
X44640Y10460D01*
Y10060D01*
X44740Y9960D01*
X44940D01*
X45039Y10060D01*
X45239Y10460D02*
X45339Y10560D01*
X45539D01*
X45639Y10460D01*
Y10360D01*
X45539Y10260D01*
X45639Y10160D01*
Y10060D01*
X45539Y9960D01*
X45339D01*
X45239Y10060D01*
Y10160D01*
X45339Y10260D01*
X45239Y10360D01*
Y10460D01*
X45339Y10260D02*
X45539D01*
X46239Y10560D02*
X45839D01*
Y10260D01*
X46039Y10360D01*
X46139D01*
X46239Y10260D01*
Y10060D01*
X46139Y9960D01*
X45939D01*
X45839Y10060D01*
X46739Y9960D02*
Y10560D01*
X46439Y10260D01*
X46839D01*
X47039Y9960D02*
X47239D01*
X47139D01*
Y10560D01*
X47039Y10460D01*
X47539Y10560D02*
Y10460D01*
X47739Y10260D01*
X47939Y10460D01*
Y10560D01*
X47739Y10260D02*
Y9960D01*
X48138Y10260D02*
X48538D01*
X48738Y9960D02*
Y10560D01*
X49038D01*
X49138Y10460D01*
Y10260D01*
X49038Y10160D01*
X48738D01*
X49338Y10560D02*
Y9960D01*
X49638D01*
X49738Y10060D01*
Y10160D01*
X49638Y10260D01*
X49338D01*
X49638D01*
X49738Y10360D01*
Y10460D01*
X49638Y10560D01*
X49338D01*
X50338Y10460D02*
X50238Y10560D01*
X50038D01*
X49938Y10460D01*
Y10360D01*
X50038Y10260D01*
X50238D01*
X50338Y10160D01*
Y10060D01*
X50238Y9960D01*
X50038D01*
X49938Y10060D01*
X42560Y12010D02*
X41960D01*
Y11710D01*
X42060Y11610D01*
X42460D01*
X42560Y11710D01*
Y12010D01*
Y11410D02*
X41960D01*
Y11110D01*
X42060Y11010D01*
X42160D01*
X42260Y11110D01*
Y11410D01*
Y11110D01*
X42360Y11010D01*
X42460D01*
X42560Y11110D01*
Y11410D01*
X42460Y10810D02*
X42560Y10710D01*
Y10510D01*
X42460Y10411D01*
X42360D01*
X42260Y10510D01*
X42160Y10411D01*
X42060D01*
X41960Y10510D01*
Y10710D01*
X42060Y10810D01*
X42160D01*
X42260Y10710D01*
X42360Y10810D01*
X42460D01*
X42260Y10710D02*
Y10510D01*
X42460Y10211D02*
X42560Y10111D01*
Y9911D01*
X42660Y9811D01*
X41960Y9611D02*
Y9411D01*
Y9511D01*
X42560D01*
X42460Y9611D01*
X42560Y8711D02*
Y9111D01*
X42260D01*
X42360Y8911D01*
Y8811D01*
X42260Y8711D01*
X42060D01*
X41960Y8811D01*
Y9011D01*
X42060Y9111D01*
X53390Y4400D02*
X53290Y4300D01*
Y4100D01*
X53390Y4000D01*
X53490D01*
X53590Y4100D01*
Y4300D01*
X53690Y4400D01*
X53790D01*
X53890Y4300D01*
Y4100D01*
X53790Y4000D01*
X53490Y4600D02*
X53790D01*
X53890Y4700D01*
Y5000D01*
X53490D01*
X54090Y5200D02*
X53490D01*
Y5500D01*
X53590Y5599D01*
X53790D01*
X53890Y5500D01*
Y5200D01*
X54090Y5799D02*
X53490D01*
Y6099D01*
X53590Y6199D01*
X53790D01*
X53890Y6099D01*
Y5799D01*
Y6399D02*
Y6599D01*
Y6499D01*
X53290D01*
Y6399D01*
X53490Y6899D02*
X53790D01*
X53890Y6999D01*
Y7299D01*
X53990D01*
X54090Y7199D01*
Y7099D01*
X53890Y7299D02*
X53490D01*
X53890Y8099D02*
X53290D01*
Y8399D01*
X53390Y8499D01*
X53590D01*
X53690Y8399D01*
Y8099D01*
X53890Y8698D02*
Y8898D01*
Y8798D01*
X53490D01*
Y8698D01*
X53890Y9198D02*
X53490D01*
Y9498D01*
X53590Y9598D01*
X53890D01*
Y9798D02*
Y10098D01*
X53790Y10198D01*
X53690Y10098D01*
Y9898D01*
X53590Y9798D01*
X53490Y9898D01*
Y10198D01*
X43980Y2700D02*
Y2100D01*
X44280D01*
X44380Y2200D01*
Y2600D01*
X44280Y2700D01*
X43980D01*
X44580D02*
Y2100D01*
X44880D01*
X44980Y2200D01*
Y2300D01*
X44880Y2400D01*
X44580D01*
X44880D01*
X44980Y2500D01*
Y2600D01*
X44880Y2700D01*
X44580D01*
X45180Y2600D02*
X45280Y2700D01*
X45480D01*
X45579Y2600D01*
Y2200D01*
X45480Y2100D01*
X45280D01*
X45180Y2200D01*
Y2600D01*
X45779D02*
X45879Y2700D01*
X46079D01*
X46179Y2800D01*
X46379Y2700D02*
X46779D01*
Y2600D01*
X46379Y2200D01*
Y2100D01*
X8000Y25000D02*
X16000D01*
Y24000D02*
Y25000D01*
X8000Y24000D02*
X16000D01*
X8000D02*
Y25000D01*
X7000Y16000D02*
Y24000D01*
X8000D01*
Y16000D02*
Y24000D01*
X7000Y16000D02*
X8000D01*
X17000D02*
Y24000D01*
X16000Y16000D02*
X17000D01*
X16000D02*
Y24000D01*
X17000D01*
X8000Y15000D02*
X16000D01*
X8000D02*
Y16000D01*
X16000D01*
Y15000D02*
Y16000D01*
X15530Y25460D02*
X15630Y25360D01*
X15830D01*
X15930Y25460D01*
Y25860D01*
X15830Y25960D01*
X15630D01*
X15530Y25860D01*
X15230Y25960D02*
X15030D01*
X14930Y25860D01*
Y25660D01*
X15030Y25560D01*
X15230D01*
X15330Y25660D01*
Y25860D01*
X15230Y25960D01*
X14730D02*
Y25560D01*
X14430D01*
X14331Y25660D01*
Y25960D01*
X14031Y25460D02*
Y25560D01*
X14131D01*
X13931D01*
X14031D01*
Y25860D01*
X13931Y25960D01*
X13631Y25560D02*
Y25960D01*
Y25760D01*
X13531Y25660D01*
X13431Y25560D01*
X13331D01*
X12931Y25960D02*
X12731D01*
X12631Y25860D01*
Y25660D01*
X12731Y25560D01*
X12931D01*
X13031Y25660D01*
Y25860D01*
X12931Y25960D01*
X12431D02*
X12231D01*
X12331D01*
Y25360D01*
X12431D01*
X11331D02*
X11132D01*
X11232D01*
Y25960D01*
X11331D01*
X11132D01*
X10532Y25360D02*
X10732D01*
X10832Y25460D01*
Y25860D01*
X10732Y25960D01*
X10532D01*
X10432Y25860D01*
Y25460D01*
X10532Y25360D01*
X9790Y20670D02*
X9690Y20770D01*
X9490D01*
X9390Y20670D01*
Y20270D01*
X9490Y20170D01*
X9690D01*
X9790Y20270D01*
X9990Y20070D02*
X10390D01*
X10590Y20170D02*
Y20570D01*
X10790Y20770D01*
X10989Y20570D01*
Y20170D01*
Y20470D01*
X10590D01*
X11189Y20770D02*
Y20370D01*
X11389Y20170D01*
X11589Y20370D01*
Y20770D01*
X11789D02*
Y20170D01*
X12089D01*
X12189Y20270D01*
Y20670D01*
X12089Y20770D01*
X11789D01*
X12389D02*
Y20170D01*
X12689D01*
X12789Y20270D01*
Y20670D01*
X12689Y20770D01*
X12389D01*
X12989Y20070D02*
X13389D01*
X13589Y20670D02*
X13689Y20770D01*
X13889D01*
X13989Y20670D01*
Y20270D01*
X13889Y20170D01*
X13689D01*
X13589Y20270D01*
Y20670D01*
X14188Y20170D02*
Y20270D01*
X14288D01*
Y20170D01*
X14188D01*
X14688D02*
X14888D01*
X14788D01*
Y20770D01*
X14688Y20670D01*
X15188Y20570D02*
Y20270D01*
X15288Y20170D01*
X15588D01*
Y20570D01*
X10020Y18100D02*
X9920Y18200D01*
X9720D01*
X9620Y18100D01*
Y17700D01*
X9720Y17600D01*
X9920D01*
X10020Y17700D01*
X10220Y17500D02*
X10620D01*
X10820Y18200D02*
Y17600D01*
X11120D01*
X11219Y17700D01*
Y18100D01*
X11120Y18200D01*
X10820D01*
X11419D02*
Y17800D01*
X11619Y17600D01*
X11819Y17800D01*
Y18200D01*
X12019D02*
Y17600D01*
X12319D01*
X12419Y17700D01*
Y18100D01*
X12319Y18200D01*
X12019D01*
X12619D02*
Y17600D01*
X12919D01*
X13019Y17700D01*
Y18100D01*
X12919Y18200D01*
X12619D01*
X13219Y17500D02*
X13619D01*
X13819Y18100D02*
X13919Y18200D01*
X14119D01*
X14219Y18100D01*
Y17700D01*
X14119Y17600D01*
X13919D01*
X13819Y17700D01*
Y18100D01*
X14418Y17600D02*
Y17700D01*
X14518D01*
Y17600D01*
X14418D01*
X14918D02*
X15118D01*
X15018D01*
Y18200D01*
X14918Y18100D01*
X15418Y18000D02*
Y17700D01*
X15518Y17600D01*
X15818D01*
Y18000D01*
X10520Y19340D02*
X10420Y19440D01*
X10220D01*
X10120Y19340D01*
Y18940D01*
X10220Y18840D01*
X10420D01*
X10520Y18940D01*
X10720Y18740D02*
X11120D01*
X11320Y18840D02*
Y19240D01*
X11520Y19440D01*
X11719Y19240D01*
Y18840D01*
Y19140D01*
X11320D01*
X11919Y19440D02*
Y19040D01*
X12119Y18840D01*
X12319Y19040D01*
Y19440D01*
X12519D02*
Y18840D01*
X12819D01*
X12919Y18940D01*
Y19340D01*
X12819Y19440D01*
X12519D01*
X13119D02*
Y18840D01*
X13419D01*
X13519Y18940D01*
Y19340D01*
X13419Y19440D01*
X13119D01*
X13719Y18740D02*
X14119D01*
X14319Y18840D02*
X14519D01*
X14419D01*
Y19440D01*
X14319Y19340D01*
X14818D02*
X14918Y19440D01*
X15118D01*
X15218Y19340D01*
Y18940D01*
X15118Y18840D01*
X14918D01*
X14818Y18940D01*
Y19340D01*
X15418Y19240D02*
Y18940D01*
X15518Y18840D01*
X15818D01*
Y19240D01*
X10070Y16770D02*
X9970Y16870D01*
X9770D01*
X9670Y16770D01*
Y16370D01*
X9770Y16270D01*
X9970D01*
X10070Y16370D01*
X10270Y16170D02*
X10670D01*
X10870Y16870D02*
Y16270D01*
X11170D01*
X11269Y16370D01*
Y16770D01*
X11170Y16870D01*
X10870D01*
X11469D02*
Y16470D01*
X11669Y16270D01*
X11869Y16470D01*
Y16870D01*
X12069D02*
Y16270D01*
X12369D01*
X12469Y16370D01*
Y16770D01*
X12369Y16870D01*
X12069D01*
X12669D02*
Y16270D01*
X12969D01*
X13069Y16370D01*
Y16770D01*
X12969Y16870D01*
X12669D01*
X13269Y16170D02*
X13669D01*
X13869Y16270D02*
X14069D01*
X13969D01*
Y16870D01*
X13869Y16770D01*
X14368D02*
X14468Y16870D01*
X14668D01*
X14768Y16770D01*
Y16370D01*
X14668Y16270D01*
X14468D01*
X14368Y16370D01*
Y16770D01*
X14968Y16670D02*
Y16370D01*
X15068Y16270D01*
X15368D01*
Y16670D01*
X7440Y22560D02*
Y21960D01*
X7740D01*
X7840Y22060D01*
Y22460D01*
X7740Y22560D01*
X7440D01*
X8040Y21960D02*
Y22360D01*
X8240Y22560D01*
X8440Y22360D01*
Y21960D01*
Y22260D01*
X8040D01*
X9039Y22460D02*
X8940Y22560D01*
X8740D01*
X8640Y22460D01*
Y22060D01*
X8740Y21960D01*
X8940D01*
X9039Y22060D01*
X9239Y22460D02*
X9339Y22560D01*
X9539D01*
X9639Y22460D01*
Y22360D01*
X9539Y22260D01*
X9639Y22160D01*
Y22060D01*
X9539Y21960D01*
X9339D01*
X9239Y22060D01*
Y22160D01*
X9339Y22260D01*
X9239Y22360D01*
Y22460D01*
X9339Y22260D02*
X9539D01*
X10239Y22560D02*
X9839D01*
Y22260D01*
X10039Y22360D01*
X10139D01*
X10239Y22260D01*
Y22060D01*
X10139Y21960D01*
X9939D01*
X9839Y22060D01*
X10739Y21960D02*
Y22560D01*
X10439Y22260D01*
X10839D01*
X11039Y21960D02*
X11239D01*
X11139D01*
Y22560D01*
X11039Y22460D01*
X11539Y22560D02*
Y22460D01*
X11739Y22260D01*
X11939Y22460D01*
Y22560D01*
X11739Y22260D02*
Y21960D01*
X12138Y22260D02*
X12538D01*
X12738Y21960D02*
Y22560D01*
X13038D01*
X13138Y22460D01*
Y22260D01*
X13038Y22160D01*
X12738D01*
X13338Y22560D02*
Y21960D01*
X13638D01*
X13738Y22060D01*
Y22160D01*
X13638Y22260D01*
X13338D01*
X13638D01*
X13738Y22360D01*
Y22460D01*
X13638Y22560D01*
X13338D01*
X14338Y22460D02*
X14238Y22560D01*
X14038D01*
X13938Y22460D01*
Y22360D01*
X14038Y22260D01*
X14238D01*
X14338Y22160D01*
Y22060D01*
X14238Y21960D01*
X14038D01*
X13938Y22060D01*
X6560Y24010D02*
X5960D01*
Y23710D01*
X6060Y23610D01*
X6460D01*
X6560Y23710D01*
Y24010D01*
Y23410D02*
X5960D01*
Y23110D01*
X6060Y23010D01*
X6160D01*
X6260Y23110D01*
Y23410D01*
Y23110D01*
X6360Y23010D01*
X6460D01*
X6560Y23110D01*
Y23410D01*
X6460Y22810D02*
X6560Y22710D01*
Y22510D01*
X6460Y22411D01*
X6360D01*
X6260Y22510D01*
X6160Y22411D01*
X6060D01*
X5960Y22510D01*
Y22710D01*
X6060Y22810D01*
X6160D01*
X6260Y22710D01*
X6360Y22810D01*
X6460D01*
X6260Y22710D02*
Y22510D01*
X6460Y22211D02*
X6560Y22111D01*
Y21911D01*
X6660Y21811D01*
X5960Y21611D02*
Y21411D01*
Y21511D01*
X6560D01*
X6460Y21611D01*
X6560Y20711D02*
Y21111D01*
X6260D01*
X6360Y20911D01*
Y20811D01*
X6260Y20711D01*
X6060D01*
X5960Y20811D01*
Y21011D01*
X6060Y21111D01*
X17390Y16400D02*
X17290Y16300D01*
Y16100D01*
X17390Y16000D01*
X17490D01*
X17590Y16100D01*
Y16300D01*
X17690Y16400D01*
X17790D01*
X17890Y16300D01*
Y16100D01*
X17790Y16000D01*
X17490Y16600D02*
X17790D01*
X17890Y16700D01*
Y17000D01*
X17490D01*
X18090Y17200D02*
X17490D01*
Y17500D01*
X17590Y17599D01*
X17790D01*
X17890Y17500D01*
Y17200D01*
X18090Y17799D02*
X17490D01*
Y18099D01*
X17590Y18199D01*
X17790D01*
X17890Y18099D01*
Y17799D01*
Y18399D02*
Y18599D01*
Y18499D01*
X17290D01*
Y18399D01*
X17490Y18899D02*
X17790D01*
X17890Y18999D01*
Y19299D01*
X17990D01*
X18090Y19199D01*
Y19099D01*
X17890Y19299D02*
X17490D01*
X17890Y20099D02*
X17290D01*
Y20399D01*
X17390Y20499D01*
X17590D01*
X17690Y20399D01*
Y20099D01*
X17890Y20698D02*
Y20898D01*
Y20798D01*
X17490D01*
Y20698D01*
X17890Y21198D02*
X17490D01*
Y21498D01*
X17590Y21598D01*
X17890D01*
Y21798D02*
Y22098D01*
X17790Y22198D01*
X17690Y22098D01*
Y21898D01*
X17590Y21798D01*
X17490Y21898D01*
Y22198D01*
X7980Y14700D02*
Y14100D01*
X8280D01*
X8380Y14200D01*
Y14600D01*
X8280Y14700D01*
X7980D01*
X8580D02*
Y14100D01*
X8880D01*
X8980Y14200D01*
Y14300D01*
X8880Y14400D01*
X8580D01*
X8880D01*
X8980Y14500D01*
Y14600D01*
X8880Y14700D01*
X8580D01*
X9180Y14600D02*
X9280Y14700D01*
X9480D01*
X9579Y14600D01*
Y14200D01*
X9480Y14100D01*
X9280D01*
X9180Y14200D01*
Y14600D01*
X9779D02*
X9879Y14700D01*
X10079D01*
X10179Y14800D01*
X10379Y14700D02*
X10779D01*
Y14600D01*
X10379Y14200D01*
Y14100D01*
X20000Y25000D02*
X28000D01*
Y24000D02*
Y25000D01*
X20000Y24000D02*
X28000D01*
X20000D02*
Y25000D01*
X19000Y16000D02*
Y24000D01*
X20000D01*
Y16000D02*
Y24000D01*
X19000Y16000D02*
X20000D01*
X29000D02*
Y24000D01*
X28000Y16000D02*
X29000D01*
X28000D02*
Y24000D01*
X29000D01*
X20000Y15000D02*
X28000D01*
X20000D02*
Y16000D01*
X28000D01*
Y15000D02*
Y16000D01*
X27530Y25460D02*
X27630Y25360D01*
X27830D01*
X27930Y25460D01*
Y25860D01*
X27830Y25960D01*
X27630D01*
X27530Y25860D01*
X27230Y25960D02*
X27030D01*
X26930Y25860D01*
Y25660D01*
X27030Y25560D01*
X27230D01*
X27330Y25660D01*
Y25860D01*
X27230Y25960D01*
X26730D02*
Y25560D01*
X26430D01*
X26331Y25660D01*
Y25960D01*
X26031Y25460D02*
Y25560D01*
X26131D01*
X25931D01*
X26031D01*
Y25860D01*
X25931Y25960D01*
X25631Y25560D02*
Y25960D01*
Y25760D01*
X25531Y25660D01*
X25431Y25560D01*
X25331D01*
X24931Y25960D02*
X24731D01*
X24631Y25860D01*
Y25660D01*
X24731Y25560D01*
X24931D01*
X25031Y25660D01*
Y25860D01*
X24931Y25960D01*
X24431D02*
X24231D01*
X24331D01*
Y25360D01*
X24431D01*
X23331D02*
X23132D01*
X23232D01*
Y25960D01*
X23331D01*
X23132D01*
X22532Y25360D02*
X22732D01*
X22832Y25460D01*
Y25860D01*
X22732Y25960D01*
X22532D01*
X22432Y25860D01*
Y25460D01*
X22532Y25360D01*
X21790Y20670D02*
X21690Y20770D01*
X21490D01*
X21390Y20670D01*
Y20270D01*
X21490Y20170D01*
X21690D01*
X21790Y20270D01*
X21990Y20070D02*
X22390D01*
X22590Y20170D02*
Y20570D01*
X22790Y20770D01*
X22989Y20570D01*
Y20170D01*
Y20470D01*
X22590D01*
X23189Y20770D02*
Y20370D01*
X23389Y20170D01*
X23589Y20370D01*
Y20770D01*
X23789D02*
Y20170D01*
X24089D01*
X24189Y20270D01*
Y20670D01*
X24089Y20770D01*
X23789D01*
X24389D02*
Y20170D01*
X24689D01*
X24789Y20270D01*
Y20670D01*
X24689Y20770D01*
X24389D01*
X24989Y20070D02*
X25389D01*
X25589Y20670D02*
X25689Y20770D01*
X25889D01*
X25989Y20670D01*
Y20270D01*
X25889Y20170D01*
X25689D01*
X25589Y20270D01*
Y20670D01*
X26188Y20170D02*
Y20270D01*
X26288D01*
Y20170D01*
X26188D01*
X26688D02*
X26888D01*
X26788D01*
Y20770D01*
X26688Y20670D01*
X27188Y20570D02*
Y20270D01*
X27288Y20170D01*
X27588D01*
Y20570D01*
X22020Y18100D02*
X21920Y18200D01*
X21720D01*
X21620Y18100D01*
Y17700D01*
X21720Y17600D01*
X21920D01*
X22020Y17700D01*
X22220Y17500D02*
X22620D01*
X22820Y18200D02*
Y17600D01*
X23120D01*
X23219Y17700D01*
Y18100D01*
X23120Y18200D01*
X22820D01*
X23419D02*
Y17800D01*
X23619Y17600D01*
X23819Y17800D01*
Y18200D01*
X24019D02*
Y17600D01*
X24319D01*
X24419Y17700D01*
Y18100D01*
X24319Y18200D01*
X24019D01*
X24619D02*
Y17600D01*
X24919D01*
X25019Y17700D01*
Y18100D01*
X24919Y18200D01*
X24619D01*
X25219Y17500D02*
X25619D01*
X25819Y18100D02*
X25919Y18200D01*
X26119D01*
X26219Y18100D01*
Y17700D01*
X26119Y17600D01*
X25919D01*
X25819Y17700D01*
Y18100D01*
X26418Y17600D02*
Y17700D01*
X26518D01*
Y17600D01*
X26418D01*
X26918D02*
X27118D01*
X27018D01*
Y18200D01*
X26918Y18100D01*
X27418Y18000D02*
Y17700D01*
X27518Y17600D01*
X27818D01*
Y18000D01*
X22520Y19340D02*
X22420Y19440D01*
X22220D01*
X22120Y19340D01*
Y18940D01*
X22220Y18840D01*
X22420D01*
X22520Y18940D01*
X22720Y18740D02*
X23120D01*
X23320Y18840D02*
Y19240D01*
X23520Y19440D01*
X23719Y19240D01*
Y18840D01*
Y19140D01*
X23320D01*
X23919Y19440D02*
Y19040D01*
X24119Y18840D01*
X24319Y19040D01*
Y19440D01*
X24519D02*
Y18840D01*
X24819D01*
X24919Y18940D01*
Y19340D01*
X24819Y19440D01*
X24519D01*
X25119D02*
Y18840D01*
X25419D01*
X25519Y18940D01*
Y19340D01*
X25419Y19440D01*
X25119D01*
X25719Y18740D02*
X26119D01*
X26319Y18840D02*
X26519D01*
X26419D01*
Y19440D01*
X26319Y19340D01*
X26818D02*
X26918Y19440D01*
X27118D01*
X27218Y19340D01*
Y18940D01*
X27118Y18840D01*
X26918D01*
X26818Y18940D01*
Y19340D01*
X27418Y19240D02*
Y18940D01*
X27518Y18840D01*
X27818D01*
Y19240D01*
X22070Y16770D02*
X21970Y16870D01*
X21770D01*
X21670Y16770D01*
Y16370D01*
X21770Y16270D01*
X21970D01*
X22070Y16370D01*
X22270Y16170D02*
X22670D01*
X22870Y16870D02*
Y16270D01*
X23170D01*
X23269Y16370D01*
Y16770D01*
X23170Y16870D01*
X22870D01*
X23469D02*
Y16470D01*
X23669Y16270D01*
X23869Y16470D01*
Y16870D01*
X24069D02*
Y16270D01*
X24369D01*
X24469Y16370D01*
Y16770D01*
X24369Y16870D01*
X24069D01*
X24669D02*
Y16270D01*
X24969D01*
X25069Y16370D01*
Y16770D01*
X24969Y16870D01*
X24669D01*
X25269Y16170D02*
X25669D01*
X25869Y16270D02*
X26069D01*
X25969D01*
Y16870D01*
X25869Y16770D01*
X26368D02*
X26468Y16870D01*
X26668D01*
X26768Y16770D01*
Y16370D01*
X26668Y16270D01*
X26468D01*
X26368Y16370D01*
Y16770D01*
X26968Y16670D02*
Y16370D01*
X27068Y16270D01*
X27368D01*
Y16670D01*
X19440Y22560D02*
Y21960D01*
X19740D01*
X19840Y22060D01*
Y22460D01*
X19740Y22560D01*
X19440D01*
X20040Y21960D02*
Y22360D01*
X20240Y22560D01*
X20440Y22360D01*
Y21960D01*
Y22260D01*
X20040D01*
X21039Y22460D02*
X20940Y22560D01*
X20740D01*
X20640Y22460D01*
Y22060D01*
X20740Y21960D01*
X20940D01*
X21039Y22060D01*
X21239Y22460D02*
X21339Y22560D01*
X21539D01*
X21639Y22460D01*
Y22360D01*
X21539Y22260D01*
X21639Y22160D01*
Y22060D01*
X21539Y21960D01*
X21339D01*
X21239Y22060D01*
Y22160D01*
X21339Y22260D01*
X21239Y22360D01*
Y22460D01*
X21339Y22260D02*
X21539D01*
X22239Y22560D02*
X21839D01*
Y22260D01*
X22039Y22360D01*
X22139D01*
X22239Y22260D01*
Y22060D01*
X22139Y21960D01*
X21939D01*
X21839Y22060D01*
X22739Y21960D02*
Y22560D01*
X22439Y22260D01*
X22839D01*
X23039Y21960D02*
X23239D01*
X23139D01*
Y22560D01*
X23039Y22460D01*
X23539Y22560D02*
Y22460D01*
X23739Y22260D01*
X23939Y22460D01*
Y22560D01*
X23739Y22260D02*
Y21960D01*
X24138Y22260D02*
X24538D01*
X24738Y21960D02*
Y22560D01*
X25038D01*
X25138Y22460D01*
Y22260D01*
X25038Y22160D01*
X24738D01*
X25338Y22560D02*
Y21960D01*
X25638D01*
X25738Y22060D01*
Y22160D01*
X25638Y22260D01*
X25338D01*
X25638D01*
X25738Y22360D01*
Y22460D01*
X25638Y22560D01*
X25338D01*
X26338Y22460D02*
X26238Y22560D01*
X26038D01*
X25938Y22460D01*
Y22360D01*
X26038Y22260D01*
X26238D01*
X26338Y22160D01*
Y22060D01*
X26238Y21960D01*
X26038D01*
X25938Y22060D01*
X18560Y24010D02*
X17960D01*
Y23710D01*
X18060Y23610D01*
X18460D01*
X18560Y23710D01*
Y24010D01*
Y23410D02*
X17960D01*
Y23110D01*
X18060Y23010D01*
X18160D01*
X18260Y23110D01*
Y23410D01*
Y23110D01*
X18360Y23010D01*
X18460D01*
X18560Y23110D01*
Y23410D01*
X18460Y22810D02*
X18560Y22710D01*
Y22510D01*
X18460Y22411D01*
X18360D01*
X18260Y22510D01*
X18160Y22411D01*
X18060D01*
X17960Y22510D01*
Y22710D01*
X18060Y22810D01*
X18160D01*
X18260Y22710D01*
X18360Y22810D01*
X18460D01*
X18260Y22710D02*
Y22510D01*
X18460Y22211D02*
X18560Y22111D01*
Y21911D01*
X18660Y21811D01*
X17960Y21611D02*
Y21411D01*
Y21511D01*
X18560D01*
X18460Y21611D01*
X18560Y20711D02*
Y21111D01*
X18260D01*
X18360Y20911D01*
Y20811D01*
X18260Y20711D01*
X18060D01*
X17960Y20811D01*
Y21011D01*
X18060Y21111D01*
X29390Y16400D02*
X29290Y16300D01*
Y16100D01*
X29390Y16000D01*
X29490D01*
X29590Y16100D01*
Y16300D01*
X29690Y16400D01*
X29790D01*
X29890Y16300D01*
Y16100D01*
X29790Y16000D01*
X29490Y16600D02*
X29790D01*
X29890Y16700D01*
Y17000D01*
X29490D01*
X30090Y17200D02*
X29490D01*
Y17500D01*
X29590Y17599D01*
X29790D01*
X29890Y17500D01*
Y17200D01*
X30090Y17799D02*
X29490D01*
Y18099D01*
X29590Y18199D01*
X29790D01*
X29890Y18099D01*
Y17799D01*
Y18399D02*
Y18599D01*
Y18499D01*
X29290D01*
Y18399D01*
X29490Y18899D02*
X29790D01*
X29890Y18999D01*
Y19299D01*
X29990D01*
X30090Y19199D01*
Y19099D01*
X29890Y19299D02*
X29490D01*
X29890Y20099D02*
X29290D01*
Y20399D01*
X29390Y20499D01*
X29590D01*
X29690Y20399D01*
Y20099D01*
X29890Y20698D02*
Y20898D01*
Y20798D01*
X29490D01*
Y20698D01*
X29890Y21198D02*
X29490D01*
Y21498D01*
X29590Y21598D01*
X29890D01*
Y21798D02*
Y22098D01*
X29790Y22198D01*
X29690Y22098D01*
Y21898D01*
X29590Y21798D01*
X29490Y21898D01*
Y22198D01*
X19980Y14700D02*
Y14100D01*
X20280D01*
X20380Y14200D01*
Y14600D01*
X20280Y14700D01*
X19980D01*
X20580D02*
Y14100D01*
X20880D01*
X20980Y14200D01*
Y14300D01*
X20880Y14400D01*
X20580D01*
X20880D01*
X20980Y14500D01*
Y14600D01*
X20880Y14700D01*
X20580D01*
X21180Y14600D02*
X21280Y14700D01*
X21480D01*
X21579Y14600D01*
Y14200D01*
X21480Y14100D01*
X21280D01*
X21180Y14200D01*
Y14600D01*
X21779D02*
X21879Y14700D01*
X22079D01*
X22179Y14800D01*
X22379Y14700D02*
X22779D01*
Y14600D01*
X22379Y14200D01*
Y14100D01*
X32000Y25000D02*
X40000D01*
Y24000D02*
Y25000D01*
X32000Y24000D02*
X40000D01*
X32000D02*
Y25000D01*
X31000Y16000D02*
Y24000D01*
X32000D01*
Y16000D02*
Y24000D01*
X31000Y16000D02*
X32000D01*
X41000D02*
Y24000D01*
X40000Y16000D02*
X41000D01*
X40000D02*
Y24000D01*
X41000D01*
X32000Y15000D02*
X40000D01*
X32000D02*
Y16000D01*
X40000D01*
Y15000D02*
Y16000D01*
X39530Y25460D02*
X39630Y25360D01*
X39830D01*
X39930Y25460D01*
Y25860D01*
X39830Y25960D01*
X39630D01*
X39530Y25860D01*
X39230Y25960D02*
X39030D01*
X38930Y25860D01*
Y25660D01*
X39030Y25560D01*
X39230D01*
X39330Y25660D01*
Y25860D01*
X39230Y25960D01*
X38730D02*
Y25560D01*
X38430D01*
X38331Y25660D01*
Y25960D01*
X38031Y25460D02*
Y25560D01*
X38131D01*
X37931D01*
X38031D01*
Y25860D01*
X37931Y25960D01*
X37631Y25560D02*
Y25960D01*
Y25760D01*
X37531Y25660D01*
X37431Y25560D01*
X37331D01*
X36931Y25960D02*
X36731D01*
X36631Y25860D01*
Y25660D01*
X36731Y25560D01*
X36931D01*
X37031Y25660D01*
Y25860D01*
X36931Y25960D01*
X36431D02*
X36231D01*
X36331D01*
Y25360D01*
X36431D01*
X35331D02*
X35132D01*
X35232D01*
Y25960D01*
X35331D01*
X35132D01*
X34532Y25360D02*
X34732D01*
X34832Y25460D01*
Y25860D01*
X34732Y25960D01*
X34532D01*
X34432Y25860D01*
Y25460D01*
X34532Y25360D01*
X33790Y20670D02*
X33690Y20770D01*
X33490D01*
X33390Y20670D01*
Y20270D01*
X33490Y20170D01*
X33690D01*
X33790Y20270D01*
X33990Y20070D02*
X34390D01*
X34590Y20170D02*
Y20570D01*
X34790Y20770D01*
X34989Y20570D01*
Y20170D01*
Y20470D01*
X34590D01*
X35189Y20770D02*
Y20370D01*
X35389Y20170D01*
X35589Y20370D01*
Y20770D01*
X35789D02*
Y20170D01*
X36089D01*
X36189Y20270D01*
Y20670D01*
X36089Y20770D01*
X35789D01*
X36389D02*
Y20170D01*
X36689D01*
X36789Y20270D01*
Y20670D01*
X36689Y20770D01*
X36389D01*
X36989Y20070D02*
X37389D01*
X37589Y20670D02*
X37689Y20770D01*
X37889D01*
X37989Y20670D01*
Y20270D01*
X37889Y20170D01*
X37689D01*
X37589Y20270D01*
Y20670D01*
X38188Y20170D02*
Y20270D01*
X38288D01*
Y20170D01*
X38188D01*
X38688D02*
X38888D01*
X38788D01*
Y20770D01*
X38688Y20670D01*
X39188Y20570D02*
Y20270D01*
X39288Y20170D01*
X39588D01*
Y20570D01*
X34020Y18100D02*
X33920Y18200D01*
X33720D01*
X33620Y18100D01*
Y17700D01*
X33720Y17600D01*
X33920D01*
X34020Y17700D01*
X34220Y17500D02*
X34620D01*
X34820Y18200D02*
Y17600D01*
X35120D01*
X35219Y17700D01*
Y18100D01*
X35120Y18200D01*
X34820D01*
X35419D02*
Y17800D01*
X35619Y17600D01*
X35819Y17800D01*
Y18200D01*
X36019D02*
Y17600D01*
X36319D01*
X36419Y17700D01*
Y18100D01*
X36319Y18200D01*
X36019D01*
X36619D02*
Y17600D01*
X36919D01*
X37019Y17700D01*
Y18100D01*
X36919Y18200D01*
X36619D01*
X37219Y17500D02*
X37619D01*
X37819Y18100D02*
X37919Y18200D01*
X38119D01*
X38219Y18100D01*
Y17700D01*
X38119Y17600D01*
X37919D01*
X37819Y17700D01*
Y18100D01*
X38418Y17600D02*
Y17700D01*
X38518D01*
Y17600D01*
X38418D01*
X38918D02*
X39118D01*
X39018D01*
Y18200D01*
X38918Y18100D01*
X39418Y18000D02*
Y17700D01*
X39518Y17600D01*
X39818D01*
Y18000D01*
X34520Y19340D02*
X34420Y19440D01*
X34220D01*
X34120Y19340D01*
Y18940D01*
X34220Y18840D01*
X34420D01*
X34520Y18940D01*
X34720Y18740D02*
X35120D01*
X35320Y18840D02*
Y19240D01*
X35520Y19440D01*
X35719Y19240D01*
Y18840D01*
Y19140D01*
X35320D01*
X35919Y19440D02*
Y19040D01*
X36119Y18840D01*
X36319Y19040D01*
Y19440D01*
X36519D02*
Y18840D01*
X36819D01*
X36919Y18940D01*
Y19340D01*
X36819Y19440D01*
X36519D01*
X37119D02*
Y18840D01*
X37419D01*
X37519Y18940D01*
Y19340D01*
X37419Y19440D01*
X37119D01*
X37719Y18740D02*
X38119D01*
X38319Y18840D02*
X38519D01*
X38419D01*
Y19440D01*
X38319Y19340D01*
X38818D02*
X38918Y19440D01*
X39118D01*
X39218Y19340D01*
Y18940D01*
X39118Y18840D01*
X38918D01*
X38818Y18940D01*
Y19340D01*
X39418Y19240D02*
Y18940D01*
X39518Y18840D01*
X39818D01*
Y19240D01*
X34070Y16770D02*
X33970Y16870D01*
X33770D01*
X33670Y16770D01*
Y16370D01*
X33770Y16270D01*
X33970D01*
X34070Y16370D01*
X34270Y16170D02*
X34670D01*
X34870Y16870D02*
Y16270D01*
X35170D01*
X35269Y16370D01*
Y16770D01*
X35170Y16870D01*
X34870D01*
X35469D02*
Y16470D01*
X35669Y16270D01*
X35869Y16470D01*
Y16870D01*
X36069D02*
Y16270D01*
X36369D01*
X36469Y16370D01*
Y16770D01*
X36369Y16870D01*
X36069D01*
X36669D02*
Y16270D01*
X36969D01*
X37069Y16370D01*
Y16770D01*
X36969Y16870D01*
X36669D01*
X37269Y16170D02*
X37669D01*
X37869Y16270D02*
X38069D01*
X37969D01*
Y16870D01*
X37869Y16770D01*
X38368D02*
X38468Y16870D01*
X38668D01*
X38768Y16770D01*
Y16370D01*
X38668Y16270D01*
X38468D01*
X38368Y16370D01*
Y16770D01*
X38968Y16670D02*
Y16370D01*
X39068Y16270D01*
X39368D01*
Y16670D01*
X31440Y22560D02*
Y21960D01*
X31740D01*
X31840Y22060D01*
Y22460D01*
X31740Y22560D01*
X31440D01*
X32040Y21960D02*
Y22360D01*
X32240Y22560D01*
X32440Y22360D01*
Y21960D01*
Y22260D01*
X32040D01*
X33039Y22460D02*
X32940Y22560D01*
X32740D01*
X32640Y22460D01*
Y22060D01*
X32740Y21960D01*
X32940D01*
X33039Y22060D01*
X33239Y22460D02*
X33339Y22560D01*
X33539D01*
X33639Y22460D01*
Y22360D01*
X33539Y22260D01*
X33639Y22160D01*
Y22060D01*
X33539Y21960D01*
X33339D01*
X33239Y22060D01*
Y22160D01*
X33339Y22260D01*
X33239Y22360D01*
Y22460D01*
X33339Y22260D02*
X33539D01*
X34239Y22560D02*
X33839D01*
Y22260D01*
X34039Y22360D01*
X34139D01*
X34239Y22260D01*
Y22060D01*
X34139Y21960D01*
X33939D01*
X33839Y22060D01*
X34739Y21960D02*
Y22560D01*
X34439Y22260D01*
X34839D01*
X35039Y21960D02*
X35239D01*
X35139D01*
Y22560D01*
X35039Y22460D01*
X35539Y22560D02*
Y22460D01*
X35739Y22260D01*
X35939Y22460D01*
Y22560D01*
X35739Y22260D02*
Y21960D01*
X36138Y22260D02*
X36538D01*
X36738Y21960D02*
Y22560D01*
X37038D01*
X37138Y22460D01*
Y22260D01*
X37038Y22160D01*
X36738D01*
X37338Y22560D02*
Y21960D01*
X37638D01*
X37738Y22060D01*
Y22160D01*
X37638Y22260D01*
X37338D01*
X37638D01*
X37738Y22360D01*
Y22460D01*
X37638Y22560D01*
X37338D01*
X38338Y22460D02*
X38238Y22560D01*
X38038D01*
X37938Y22460D01*
Y22360D01*
X38038Y22260D01*
X38238D01*
X38338Y22160D01*
Y22060D01*
X38238Y21960D01*
X38038D01*
X37938Y22060D01*
X30560Y24010D02*
X29960D01*
Y23710D01*
X30060Y23610D01*
X30460D01*
X30560Y23710D01*
Y24010D01*
Y23410D02*
X29960D01*
Y23110D01*
X30060Y23010D01*
X30160D01*
X30260Y23110D01*
Y23410D01*
Y23110D01*
X30360Y23010D01*
X30460D01*
X30560Y23110D01*
Y23410D01*
X30460Y22810D02*
X30560Y22710D01*
Y22510D01*
X30460Y22411D01*
X30360D01*
X30260Y22510D01*
X30160Y22411D01*
X30060D01*
X29960Y22510D01*
Y22710D01*
X30060Y22810D01*
X30160D01*
X30260Y22710D01*
X30360Y22810D01*
X30460D01*
X30260Y22710D02*
Y22510D01*
X30460Y22211D02*
X30560Y22111D01*
Y21911D01*
X30660Y21811D01*
X29960Y21611D02*
Y21411D01*
Y21511D01*
X30560D01*
X30460Y21611D01*
X30560Y20711D02*
Y21111D01*
X30260D01*
X30360Y20911D01*
Y20811D01*
X30260Y20711D01*
X30060D01*
X29960Y20811D01*
Y21011D01*
X30060Y21111D01*
X41390Y16400D02*
X41290Y16300D01*
Y16100D01*
X41390Y16000D01*
X41490D01*
X41590Y16100D01*
Y16300D01*
X41690Y16400D01*
X41790D01*
X41890Y16300D01*
Y16100D01*
X41790Y16000D01*
X41490Y16600D02*
X41790D01*
X41890Y16700D01*
Y17000D01*
X41490D01*
X42090Y17200D02*
X41490D01*
Y17500D01*
X41590Y17599D01*
X41790D01*
X41890Y17500D01*
Y17200D01*
X42090Y17799D02*
X41490D01*
Y18099D01*
X41590Y18199D01*
X41790D01*
X41890Y18099D01*
Y17799D01*
Y18399D02*
Y18599D01*
Y18499D01*
X41290D01*
Y18399D01*
X41490Y18899D02*
X41790D01*
X41890Y18999D01*
Y19299D01*
X41990D01*
X42090Y19199D01*
Y19099D01*
X41890Y19299D02*
X41490D01*
X41890Y20099D02*
X41290D01*
Y20399D01*
X41390Y20499D01*
X41590D01*
X41690Y20399D01*
Y20099D01*
X41890Y20698D02*
Y20898D01*
Y20798D01*
X41490D01*
Y20698D01*
X41890Y21198D02*
X41490D01*
Y21498D01*
X41590Y21598D01*
X41890D01*
Y21798D02*
Y22098D01*
X41790Y22198D01*
X41690Y22098D01*
Y21898D01*
X41590Y21798D01*
X41490Y21898D01*
Y22198D01*
X31980Y14700D02*
Y14100D01*
X32280D01*
X32380Y14200D01*
Y14600D01*
X32280Y14700D01*
X31980D01*
X32580D02*
Y14100D01*
X32880D01*
X32980Y14200D01*
Y14300D01*
X32880Y14400D01*
X32580D01*
X32880D01*
X32980Y14500D01*
Y14600D01*
X32880Y14700D01*
X32580D01*
X33180Y14600D02*
X33280Y14700D01*
X33480D01*
X33579Y14600D01*
Y14200D01*
X33480Y14100D01*
X33280D01*
X33180Y14200D01*
Y14600D01*
X33779D02*
X33879Y14700D01*
X34079D01*
X34179Y14800D01*
X34379Y14700D02*
X34779D01*
Y14600D01*
X34379Y14200D01*
Y14100D01*
X44000Y25000D02*
X52000D01*
Y24000D02*
Y25000D01*
X44000Y24000D02*
X52000D01*
X44000D02*
Y25000D01*
X43000Y16000D02*
Y24000D01*
X44000D01*
Y16000D02*
Y24000D01*
X43000Y16000D02*
X44000D01*
X53000D02*
Y24000D01*
X52000Y16000D02*
X53000D01*
X52000D02*
Y24000D01*
X53000D01*
X44000Y15000D02*
X52000D01*
X44000D02*
Y16000D01*
X52000D01*
Y15000D02*
Y16000D01*
X51530Y25460D02*
X51630Y25360D01*
X51830D01*
X51930Y25460D01*
Y25860D01*
X51830Y25960D01*
X51630D01*
X51530Y25860D01*
X51230Y25960D02*
X51030D01*
X50930Y25860D01*
Y25660D01*
X51030Y25560D01*
X51230D01*
X51330Y25660D01*
Y25860D01*
X51230Y25960D01*
X50730D02*
Y25560D01*
X50430D01*
X50331Y25660D01*
Y25960D01*
X50031Y25460D02*
Y25560D01*
X50131D01*
X49931D01*
X50031D01*
Y25860D01*
X49931Y25960D01*
X49631Y25560D02*
Y25960D01*
Y25760D01*
X49531Y25660D01*
X49431Y25560D01*
X49331D01*
X48931Y25960D02*
X48731D01*
X48631Y25860D01*
Y25660D01*
X48731Y25560D01*
X48931D01*
X49031Y25660D01*
Y25860D01*
X48931Y25960D01*
X48431D02*
X48231D01*
X48331D01*
Y25360D01*
X48431D01*
X47331D02*
X47132D01*
X47232D01*
Y25960D01*
X47331D01*
X47132D01*
X46532Y25360D02*
X46732D01*
X46832Y25460D01*
Y25860D01*
X46732Y25960D01*
X46532D01*
X46432Y25860D01*
Y25460D01*
X46532Y25360D01*
X45790Y20670D02*
X45690Y20770D01*
X45490D01*
X45390Y20670D01*
Y20270D01*
X45490Y20170D01*
X45690D01*
X45790Y20270D01*
X45990Y20070D02*
X46390D01*
X46590Y20170D02*
Y20570D01*
X46790Y20770D01*
X46989Y20570D01*
Y20170D01*
Y20470D01*
X46590D01*
X47189Y20770D02*
Y20370D01*
X47389Y20170D01*
X47589Y20370D01*
Y20770D01*
X47789D02*
Y20170D01*
X48089D01*
X48189Y20270D01*
Y20670D01*
X48089Y20770D01*
X47789D01*
X48389D02*
Y20170D01*
X48689D01*
X48789Y20270D01*
Y20670D01*
X48689Y20770D01*
X48389D01*
X48989Y20070D02*
X49389D01*
X49589Y20670D02*
X49689Y20770D01*
X49889D01*
X49989Y20670D01*
Y20270D01*
X49889Y20170D01*
X49689D01*
X49589Y20270D01*
Y20670D01*
X50188Y20170D02*
Y20270D01*
X50288D01*
Y20170D01*
X50188D01*
X50688D02*
X50888D01*
X50788D01*
Y20770D01*
X50688Y20670D01*
X51188Y20570D02*
Y20270D01*
X51288Y20170D01*
X51588D01*
Y20570D01*
X46020Y18100D02*
X45920Y18200D01*
X45720D01*
X45620Y18100D01*
Y17700D01*
X45720Y17600D01*
X45920D01*
X46020Y17700D01*
X46220Y17500D02*
X46620D01*
X46820Y18200D02*
Y17600D01*
X47120D01*
X47219Y17700D01*
Y18100D01*
X47120Y18200D01*
X46820D01*
X47419D02*
Y17800D01*
X47619Y17600D01*
X47819Y17800D01*
Y18200D01*
X48019D02*
Y17600D01*
X48319D01*
X48419Y17700D01*
Y18100D01*
X48319Y18200D01*
X48019D01*
X48619D02*
Y17600D01*
X48919D01*
X49019Y17700D01*
Y18100D01*
X48919Y18200D01*
X48619D01*
X49219Y17500D02*
X49619D01*
X49819Y18100D02*
X49919Y18200D01*
X50119D01*
X50219Y18100D01*
Y17700D01*
X50119Y17600D01*
X49919D01*
X49819Y17700D01*
Y18100D01*
X50418Y17600D02*
Y17700D01*
X50518D01*
Y17600D01*
X50418D01*
X50918D02*
X51118D01*
X51018D01*
Y18200D01*
X50918Y18100D01*
X51418Y18000D02*
Y17700D01*
X51518Y17600D01*
X51818D01*
Y18000D01*
X46520Y19340D02*
X46420Y19440D01*
X46220D01*
X46120Y19340D01*
Y18940D01*
X46220Y18840D01*
X46420D01*
X46520Y18940D01*
X46720Y18740D02*
X47120D01*
X47320Y18840D02*
Y19240D01*
X47520Y19440D01*
X47719Y19240D01*
Y18840D01*
Y19140D01*
X47320D01*
X47919Y19440D02*
Y19040D01*
X48119Y18840D01*
X48319Y19040D01*
Y19440D01*
X48519D02*
Y18840D01*
X48819D01*
X48919Y18940D01*
Y19340D01*
X48819Y19440D01*
X48519D01*
X49119D02*
Y18840D01*
X49419D01*
X49519Y18940D01*
Y19340D01*
X49419Y19440D01*
X49119D01*
X49719Y18740D02*
X50119D01*
X50319Y18840D02*
X50519D01*
X50419D01*
Y19440D01*
X50319Y19340D01*
X50818D02*
X50918Y19440D01*
X51118D01*
X51218Y19340D01*
Y18940D01*
X51118Y18840D01*
X50918D01*
X50818Y18940D01*
Y19340D01*
X51418Y19240D02*
Y18940D01*
X51518Y18840D01*
X51818D01*
Y19240D01*
X46070Y16770D02*
X45970Y16870D01*
X45770D01*
X45670Y16770D01*
Y16370D01*
X45770Y16270D01*
X45970D01*
X46070Y16370D01*
X46270Y16170D02*
X46670D01*
X46870Y16870D02*
Y16270D01*
X47170D01*
X47269Y16370D01*
Y16770D01*
X47170Y16870D01*
X46870D01*
X47469D02*
Y16470D01*
X47669Y16270D01*
X47869Y16470D01*
Y16870D01*
X48069D02*
Y16270D01*
X48369D01*
X48469Y16370D01*
Y16770D01*
X48369Y16870D01*
X48069D01*
X48669D02*
Y16270D01*
X48969D01*
X49069Y16370D01*
Y16770D01*
X48969Y16870D01*
X48669D01*
X49269Y16170D02*
X49669D01*
X49869Y16270D02*
X50069D01*
X49969D01*
Y16870D01*
X49869Y16770D01*
X50368D02*
X50468Y16870D01*
X50668D01*
X50768Y16770D01*
Y16370D01*
X50668Y16270D01*
X50468D01*
X50368Y16370D01*
Y16770D01*
X50968Y16670D02*
Y16370D01*
X51068Y16270D01*
X51368D01*
Y16670D01*
X43440Y22560D02*
Y21960D01*
X43740D01*
X43840Y22060D01*
Y22460D01*
X43740Y22560D01*
X43440D01*
X44040Y21960D02*
Y22360D01*
X44240Y22560D01*
X44440Y22360D01*
Y21960D01*
Y22260D01*
X44040D01*
X45039Y22460D02*
X44940Y22560D01*
X44740D01*
X44640Y22460D01*
Y22060D01*
X44740Y21960D01*
X44940D01*
X45039Y22060D01*
X45239Y22460D02*
X45339Y22560D01*
X45539D01*
X45639Y22460D01*
Y22360D01*
X45539Y22260D01*
X45639Y22160D01*
Y22060D01*
X45539Y21960D01*
X45339D01*
X45239Y22060D01*
Y22160D01*
X45339Y22260D01*
X45239Y22360D01*
Y22460D01*
X45339Y22260D02*
X45539D01*
X46239Y22560D02*
X45839D01*
Y22260D01*
X46039Y22360D01*
X46139D01*
X46239Y22260D01*
Y22060D01*
X46139Y21960D01*
X45939D01*
X45839Y22060D01*
X46739Y21960D02*
Y22560D01*
X46439Y22260D01*
X46839D01*
X47039Y21960D02*
X47239D01*
X47139D01*
Y22560D01*
X47039Y22460D01*
X47539Y22560D02*
Y22460D01*
X47739Y22260D01*
X47939Y22460D01*
Y22560D01*
X47739Y22260D02*
Y21960D01*
X48138Y22260D02*
X48538D01*
X48738Y21960D02*
Y22560D01*
X49038D01*
X49138Y22460D01*
Y22260D01*
X49038Y22160D01*
X48738D01*
X49338Y22560D02*
Y21960D01*
X49638D01*
X49738Y22060D01*
Y22160D01*
X49638Y22260D01*
X49338D01*
X49638D01*
X49738Y22360D01*
Y22460D01*
X49638Y22560D01*
X49338D01*
X50338Y22460D02*
X50238Y22560D01*
X50038D01*
X49938Y22460D01*
Y22360D01*
X50038Y22260D01*
X50238D01*
X50338Y22160D01*
Y22060D01*
X50238Y21960D01*
X50038D01*
X49938Y22060D01*
X42560Y24010D02*
X41960D01*
Y23710D01*
X42060Y23610D01*
X42460D01*
X42560Y23710D01*
Y24010D01*
Y23410D02*
X41960D01*
Y23110D01*
X42060Y23010D01*
X42160D01*
X42260Y23110D01*
Y23410D01*
Y23110D01*
X42360Y23010D01*
X42460D01*
X42560Y23110D01*
Y23410D01*
X42460Y22810D02*
X42560Y22710D01*
Y22510D01*
X42460Y22411D01*
X42360D01*
X42260Y22510D01*
X42160Y22411D01*
X42060D01*
X41960Y22510D01*
Y22710D01*
X42060Y22810D01*
X42160D01*
X42260Y22710D01*
X42360Y22810D01*
X42460D01*
X42260Y22710D02*
Y22510D01*
X42460Y22211D02*
X42560Y22111D01*
Y21911D01*
X42660Y21811D01*
X41960Y21611D02*
Y21411D01*
Y21511D01*
X42560D01*
X42460Y21611D01*
X42560Y20711D02*
Y21111D01*
X42260D01*
X42360Y20911D01*
Y20811D01*
X42260Y20711D01*
X42060D01*
X41960Y20811D01*
Y21011D01*
X42060Y21111D01*
X53390Y16400D02*
X53290Y16300D01*
Y16100D01*
X53390Y16000D01*
X53490D01*
X53590Y16100D01*
Y16300D01*
X53690Y16400D01*
X53790D01*
X53890Y16300D01*
Y16100D01*
X53790Y16000D01*
X53490Y16600D02*
X53790D01*
X53890Y16700D01*
Y17000D01*
X53490D01*
X54090Y17200D02*
X53490D01*
Y17500D01*
X53590Y17599D01*
X53790D01*
X53890Y17500D01*
Y17200D01*
X54090Y17799D02*
X53490D01*
Y18099D01*
X53590Y18199D01*
X53790D01*
X53890Y18099D01*
Y17799D01*
Y18399D02*
Y18599D01*
Y18499D01*
X53290D01*
Y18399D01*
X53490Y18899D02*
X53790D01*
X53890Y18999D01*
Y19299D01*
X53990D01*
X54090Y19199D01*
Y19099D01*
X53890Y19299D02*
X53490D01*
X53890Y20099D02*
X53290D01*
Y20399D01*
X53390Y20499D01*
X53590D01*
X53690Y20399D01*
Y20099D01*
X53890Y20698D02*
Y20898D01*
Y20798D01*
X53490D01*
Y20698D01*
X53890Y21198D02*
X53490D01*
Y21498D01*
X53590Y21598D01*
X53890D01*
Y21798D02*
Y22098D01*
X53790Y22198D01*
X53690Y22098D01*
Y21898D01*
X53590Y21798D01*
X53490Y21898D01*
Y22198D01*
X43980Y14700D02*
Y14100D01*
X44280D01*
X44380Y14200D01*
Y14600D01*
X44280Y14700D01*
X43980D01*
X44580D02*
Y14100D01*
X44880D01*
X44980Y14200D01*
Y14300D01*
X44880Y14400D01*
X44580D01*
X44880D01*
X44980Y14500D01*
Y14600D01*
X44880Y14700D01*
X44580D01*
X45180Y14600D02*
X45280Y14700D01*
X45480D01*
X45579Y14600D01*
Y14200D01*
X45480Y14100D01*
X45280D01*
X45180Y14200D01*
Y14600D01*
X45779D02*
X45879Y14700D01*
X46079D01*
X46179Y14800D01*
X46379Y14700D02*
X46779D01*
Y14600D01*
X46379Y14200D01*
Y14100D01*
X8000Y37000D02*
X16000D01*
Y36000D02*
Y37000D01*
X8000Y36000D02*
X16000D01*
X8000D02*
Y37000D01*
X7000Y28000D02*
Y36000D01*
X8000D01*
Y28000D02*
Y36000D01*
X7000Y28000D02*
X8000D01*
X17000D02*
Y36000D01*
X16000Y28000D02*
X17000D01*
X16000D02*
Y36000D01*
X17000D01*
X8000Y27000D02*
X16000D01*
X8000D02*
Y28000D01*
X16000D01*
Y27000D02*
Y28000D01*
X15530Y37460D02*
X15630Y37360D01*
X15830D01*
X15930Y37460D01*
Y37860D01*
X15830Y37960D01*
X15630D01*
X15530Y37860D01*
X15230Y37960D02*
X15030D01*
X14930Y37860D01*
Y37660D01*
X15030Y37560D01*
X15230D01*
X15330Y37660D01*
Y37860D01*
X15230Y37960D01*
X14730D02*
Y37560D01*
X14430D01*
X14331Y37660D01*
Y37960D01*
X14031Y37460D02*
Y37560D01*
X14131D01*
X13931D01*
X14031D01*
Y37860D01*
X13931Y37960D01*
X13631Y37560D02*
Y37960D01*
Y37760D01*
X13531Y37660D01*
X13431Y37560D01*
X13331D01*
X12931Y37960D02*
X12731D01*
X12631Y37860D01*
Y37660D01*
X12731Y37560D01*
X12931D01*
X13031Y37660D01*
Y37860D01*
X12931Y37960D01*
X12431D02*
X12231D01*
X12331D01*
Y37360D01*
X12431D01*
X11331D02*
X11132D01*
X11232D01*
Y37960D01*
X11331D01*
X11132D01*
X10532Y37360D02*
X10732D01*
X10832Y37460D01*
Y37860D01*
X10732Y37960D01*
X10532D01*
X10432Y37860D01*
Y37460D01*
X10532Y37360D01*
X9790Y32670D02*
X9690Y32770D01*
X9490D01*
X9390Y32670D01*
Y32270D01*
X9490Y32170D01*
X9690D01*
X9790Y32270D01*
X9990Y32070D02*
X10390D01*
X10590Y32170D02*
Y32570D01*
X10790Y32770D01*
X10989Y32570D01*
Y32170D01*
Y32470D01*
X10590D01*
X11189Y32770D02*
Y32370D01*
X11389Y32170D01*
X11589Y32370D01*
Y32770D01*
X11789D02*
Y32170D01*
X12089D01*
X12189Y32270D01*
Y32670D01*
X12089Y32770D01*
X11789D01*
X12389D02*
Y32170D01*
X12689D01*
X12789Y32270D01*
Y32670D01*
X12689Y32770D01*
X12389D01*
X12989Y32070D02*
X13389D01*
X13589Y32670D02*
X13689Y32770D01*
X13889D01*
X13989Y32670D01*
Y32270D01*
X13889Y32170D01*
X13689D01*
X13589Y32270D01*
Y32670D01*
X14188Y32170D02*
Y32270D01*
X14288D01*
Y32170D01*
X14188D01*
X14688D02*
X14888D01*
X14788D01*
Y32770D01*
X14688Y32670D01*
X15188Y32570D02*
Y32270D01*
X15288Y32170D01*
X15588D01*
Y32570D01*
X10020Y30100D02*
X9920Y30200D01*
X9720D01*
X9620Y30100D01*
Y29700D01*
X9720Y29600D01*
X9920D01*
X10020Y29700D01*
X10220Y29500D02*
X10620D01*
X10820Y30200D02*
Y29600D01*
X11120D01*
X11219Y29700D01*
Y30100D01*
X11120Y30200D01*
X10820D01*
X11419D02*
Y29800D01*
X11619Y29600D01*
X11819Y29800D01*
Y30200D01*
X12019D02*
Y29600D01*
X12319D01*
X12419Y29700D01*
Y30100D01*
X12319Y30200D01*
X12019D01*
X12619D02*
Y29600D01*
X12919D01*
X13019Y29700D01*
Y30100D01*
X12919Y30200D01*
X12619D01*
X13219Y29500D02*
X13619D01*
X13819Y30100D02*
X13919Y30200D01*
X14119D01*
X14219Y30100D01*
Y29700D01*
X14119Y29600D01*
X13919D01*
X13819Y29700D01*
Y30100D01*
X14418Y29600D02*
Y29700D01*
X14518D01*
Y29600D01*
X14418D01*
X14918D02*
X15118D01*
X15018D01*
Y30200D01*
X14918Y30100D01*
X15418Y30000D02*
Y29700D01*
X15518Y29600D01*
X15818D01*
Y30000D01*
X10520Y31340D02*
X10420Y31440D01*
X10220D01*
X10120Y31340D01*
Y30940D01*
X10220Y30840D01*
X10420D01*
X10520Y30940D01*
X10720Y30740D02*
X11120D01*
X11320Y30840D02*
Y31240D01*
X11520Y31440D01*
X11719Y31240D01*
Y30840D01*
Y31140D01*
X11320D01*
X11919Y31440D02*
Y31040D01*
X12119Y30840D01*
X12319Y31040D01*
Y31440D01*
X12519D02*
Y30840D01*
X12819D01*
X12919Y30940D01*
Y31340D01*
X12819Y31440D01*
X12519D01*
X13119D02*
Y30840D01*
X13419D01*
X13519Y30940D01*
Y31340D01*
X13419Y31440D01*
X13119D01*
X13719Y30740D02*
X14119D01*
X14319Y30840D02*
X14519D01*
X14419D01*
Y31440D01*
X14319Y31340D01*
X14818D02*
X14918Y31440D01*
X15118D01*
X15218Y31340D01*
Y30940D01*
X15118Y30840D01*
X14918D01*
X14818Y30940D01*
Y31340D01*
X15418Y31240D02*
Y30940D01*
X15518Y30840D01*
X15818D01*
Y31240D01*
X10070Y28770D02*
X9970Y28870D01*
X9770D01*
X9670Y28770D01*
Y28370D01*
X9770Y28270D01*
X9970D01*
X10070Y28370D01*
X10270Y28170D02*
X10670D01*
X10870Y28870D02*
Y28270D01*
X11170D01*
X11269Y28370D01*
Y28770D01*
X11170Y28870D01*
X10870D01*
X11469D02*
Y28470D01*
X11669Y28270D01*
X11869Y28470D01*
Y28870D01*
X12069D02*
Y28270D01*
X12369D01*
X12469Y28370D01*
Y28770D01*
X12369Y28870D01*
X12069D01*
X12669D02*
Y28270D01*
X12969D01*
X13069Y28370D01*
Y28770D01*
X12969Y28870D01*
X12669D01*
X13269Y28170D02*
X13669D01*
X13869Y28270D02*
X14069D01*
X13969D01*
Y28870D01*
X13869Y28770D01*
X14368D02*
X14468Y28870D01*
X14668D01*
X14768Y28770D01*
Y28370D01*
X14668Y28270D01*
X14468D01*
X14368Y28370D01*
Y28770D01*
X14968Y28670D02*
Y28370D01*
X15068Y28270D01*
X15368D01*
Y28670D01*
X7440Y34560D02*
Y33960D01*
X7740D01*
X7840Y34060D01*
Y34460D01*
X7740Y34560D01*
X7440D01*
X8040Y33960D02*
Y34360D01*
X8240Y34560D01*
X8440Y34360D01*
Y33960D01*
Y34260D01*
X8040D01*
X9039Y34460D02*
X8940Y34560D01*
X8740D01*
X8640Y34460D01*
Y34060D01*
X8740Y33960D01*
X8940D01*
X9039Y34060D01*
X9239Y34460D02*
X9339Y34560D01*
X9539D01*
X9639Y34460D01*
Y34360D01*
X9539Y34260D01*
X9639Y34160D01*
Y34060D01*
X9539Y33960D01*
X9339D01*
X9239Y34060D01*
Y34160D01*
X9339Y34260D01*
X9239Y34360D01*
Y34460D01*
X9339Y34260D02*
X9539D01*
X10239Y34560D02*
X9839D01*
Y34260D01*
X10039Y34360D01*
X10139D01*
X10239Y34260D01*
Y34060D01*
X10139Y33960D01*
X9939D01*
X9839Y34060D01*
X10739Y33960D02*
Y34560D01*
X10439Y34260D01*
X10839D01*
X11039Y33960D02*
X11239D01*
X11139D01*
Y34560D01*
X11039Y34460D01*
X11539Y34560D02*
Y34460D01*
X11739Y34260D01*
X11939Y34460D01*
Y34560D01*
X11739Y34260D02*
Y33960D01*
X12138Y34260D02*
X12538D01*
X12738Y33960D02*
Y34560D01*
X13038D01*
X13138Y34460D01*
Y34260D01*
X13038Y34160D01*
X12738D01*
X13338Y34560D02*
Y33960D01*
X13638D01*
X13738Y34060D01*
Y34160D01*
X13638Y34260D01*
X13338D01*
X13638D01*
X13738Y34360D01*
Y34460D01*
X13638Y34560D01*
X13338D01*
X14338Y34460D02*
X14238Y34560D01*
X14038D01*
X13938Y34460D01*
Y34360D01*
X14038Y34260D01*
X14238D01*
X14338Y34160D01*
Y34060D01*
X14238Y33960D01*
X14038D01*
X13938Y34060D01*
X6560Y36010D02*
X5960D01*
Y35710D01*
X6060Y35610D01*
X6460D01*
X6560Y35710D01*
Y36010D01*
Y35410D02*
X5960D01*
Y35110D01*
X6060Y35010D01*
X6160D01*
X6260Y35110D01*
Y35410D01*
Y35110D01*
X6360Y35010D01*
X6460D01*
X6560Y35110D01*
Y35410D01*
X6460Y34810D02*
X6560Y34710D01*
Y34510D01*
X6460Y34411D01*
X6360D01*
X6260Y34510D01*
X6160Y34411D01*
X6060D01*
X5960Y34510D01*
Y34710D01*
X6060Y34810D01*
X6160D01*
X6260Y34710D01*
X6360Y34810D01*
X6460D01*
X6260Y34710D02*
Y34510D01*
X6460Y34211D02*
X6560Y34111D01*
Y33911D01*
X6660Y33811D01*
X5960Y33611D02*
Y33411D01*
Y33511D01*
X6560D01*
X6460Y33611D01*
X6560Y32711D02*
Y33111D01*
X6260D01*
X6360Y32911D01*
Y32811D01*
X6260Y32711D01*
X6060D01*
X5960Y32811D01*
Y33011D01*
X6060Y33111D01*
X17390Y28400D02*
X17290Y28300D01*
Y28100D01*
X17390Y28000D01*
X17490D01*
X17590Y28100D01*
Y28300D01*
X17690Y28400D01*
X17790D01*
X17890Y28300D01*
Y28100D01*
X17790Y28000D01*
X17490Y28600D02*
X17790D01*
X17890Y28700D01*
Y29000D01*
X17490D01*
X18090Y29200D02*
X17490D01*
Y29500D01*
X17590Y29599D01*
X17790D01*
X17890Y29500D01*
Y29200D01*
X18090Y29799D02*
X17490D01*
Y30099D01*
X17590Y30199D01*
X17790D01*
X17890Y30099D01*
Y29799D01*
Y30399D02*
Y30599D01*
Y30499D01*
X17290D01*
Y30399D01*
X17490Y30899D02*
X17790D01*
X17890Y30999D01*
Y31299D01*
X17990D01*
X18090Y31199D01*
Y31099D01*
X17890Y31299D02*
X17490D01*
X17890Y32099D02*
X17290D01*
Y32399D01*
X17390Y32499D01*
X17590D01*
X17690Y32399D01*
Y32099D01*
X17890Y32698D02*
Y32898D01*
Y32798D01*
X17490D01*
Y32698D01*
X17890Y33198D02*
X17490D01*
Y33498D01*
X17590Y33598D01*
X17890D01*
Y33798D02*
Y34098D01*
X17790Y34198D01*
X17690Y34098D01*
Y33898D01*
X17590Y33798D01*
X17490Y33898D01*
Y34198D01*
X7980Y26700D02*
Y26100D01*
X8280D01*
X8380Y26200D01*
Y26600D01*
X8280Y26700D01*
X7980D01*
X8580D02*
Y26100D01*
X8880D01*
X8980Y26200D01*
Y26300D01*
X8880Y26400D01*
X8580D01*
X8880D01*
X8980Y26500D01*
Y26600D01*
X8880Y26700D01*
X8580D01*
X9180Y26600D02*
X9280Y26700D01*
X9480D01*
X9579Y26600D01*
Y26200D01*
X9480Y26100D01*
X9280D01*
X9180Y26200D01*
Y26600D01*
X9779D02*
X9879Y26700D01*
X10079D01*
X10179Y26800D01*
X10379Y26700D02*
X10779D01*
Y26600D01*
X10379Y26200D01*
Y26100D01*
X20000Y37000D02*
X28000D01*
Y36000D02*
Y37000D01*
X20000Y36000D02*
X28000D01*
X20000D02*
Y37000D01*
X19000Y28000D02*
Y36000D01*
X20000D01*
Y28000D02*
Y36000D01*
X19000Y28000D02*
X20000D01*
X29000D02*
Y36000D01*
X28000Y28000D02*
X29000D01*
X28000D02*
Y36000D01*
X29000D01*
X20000Y27000D02*
X28000D01*
X20000D02*
Y28000D01*
X28000D01*
Y27000D02*
Y28000D01*
X27530Y37460D02*
X27630Y37360D01*
X27830D01*
X27930Y37460D01*
Y37860D01*
X27830Y37960D01*
X27630D01*
X27530Y37860D01*
X27230Y37960D02*
X27030D01*
X26930Y37860D01*
Y37660D01*
X27030Y37560D01*
X27230D01*
X27330Y37660D01*
Y37860D01*
X27230Y37960D01*
X26730D02*
Y37560D01*
X26430D01*
X26331Y37660D01*
Y37960D01*
X26031Y37460D02*
Y37560D01*
X26131D01*
X25931D01*
X26031D01*
Y37860D01*
X25931Y37960D01*
X25631Y37560D02*
Y37960D01*
Y37760D01*
X25531Y37660D01*
X25431Y37560D01*
X25331D01*
X24931Y37960D02*
X24731D01*
X24631Y37860D01*
Y37660D01*
X24731Y37560D01*
X24931D01*
X25031Y37660D01*
Y37860D01*
X24931Y37960D01*
X24431D02*
X24231D01*
X24331D01*
Y37360D01*
X24431D01*
X23331D02*
X23132D01*
X23232D01*
Y37960D01*
X23331D01*
X23132D01*
X22532Y37360D02*
X22732D01*
X22832Y37460D01*
Y37860D01*
X22732Y37960D01*
X22532D01*
X22432Y37860D01*
Y37460D01*
X22532Y37360D01*
X21790Y32670D02*
X21690Y32770D01*
X21490D01*
X21390Y32670D01*
Y32270D01*
X21490Y32170D01*
X21690D01*
X21790Y32270D01*
X21990Y32070D02*
X22390D01*
X22590Y32170D02*
Y32570D01*
X22790Y32770D01*
X22989Y32570D01*
Y32170D01*
Y32470D01*
X22590D01*
X23189Y32770D02*
Y32370D01*
X23389Y32170D01*
X23589Y32370D01*
Y32770D01*
X23789D02*
Y32170D01*
X24089D01*
X24189Y32270D01*
Y32670D01*
X24089Y32770D01*
X23789D01*
X24389D02*
Y32170D01*
X24689D01*
X24789Y32270D01*
Y32670D01*
X24689Y32770D01*
X24389D01*
X24989Y32070D02*
X25389D01*
X25589Y32670D02*
X25689Y32770D01*
X25889D01*
X25989Y32670D01*
Y32270D01*
X25889Y32170D01*
X25689D01*
X25589Y32270D01*
Y32670D01*
X26188Y32170D02*
Y32270D01*
X26288D01*
Y32170D01*
X26188D01*
X26688D02*
X26888D01*
X26788D01*
Y32770D01*
X26688Y32670D01*
X27188Y32570D02*
Y32270D01*
X27288Y32170D01*
X27588D01*
Y32570D01*
X22020Y30100D02*
X21920Y30200D01*
X21720D01*
X21620Y30100D01*
Y29700D01*
X21720Y29600D01*
X21920D01*
X22020Y29700D01*
X22220Y29500D02*
X22620D01*
X22820Y30200D02*
Y29600D01*
X23120D01*
X23219Y29700D01*
Y30100D01*
X23120Y30200D01*
X22820D01*
X23419D02*
Y29800D01*
X23619Y29600D01*
X23819Y29800D01*
Y30200D01*
X24019D02*
Y29600D01*
X24319D01*
X24419Y29700D01*
Y30100D01*
X24319Y30200D01*
X24019D01*
X24619D02*
Y29600D01*
X24919D01*
X25019Y29700D01*
Y30100D01*
X24919Y30200D01*
X24619D01*
X25219Y29500D02*
X25619D01*
X25819Y30100D02*
X25919Y30200D01*
X26119D01*
X26219Y30100D01*
Y29700D01*
X26119Y29600D01*
X25919D01*
X25819Y29700D01*
Y30100D01*
X26418Y29600D02*
Y29700D01*
X26518D01*
Y29600D01*
X26418D01*
X26918D02*
X27118D01*
X27018D01*
Y30200D01*
X26918Y30100D01*
X27418Y30000D02*
Y29700D01*
X27518Y29600D01*
X27818D01*
Y30000D01*
X22520Y31340D02*
X22420Y31440D01*
X22220D01*
X22120Y31340D01*
Y30940D01*
X22220Y30840D01*
X22420D01*
X22520Y30940D01*
X22720Y30740D02*
X23120D01*
X23320Y30840D02*
Y31240D01*
X23520Y31440D01*
X23719Y31240D01*
Y30840D01*
Y31140D01*
X23320D01*
X23919Y31440D02*
Y31040D01*
X24119Y30840D01*
X24319Y31040D01*
Y31440D01*
X24519D02*
Y30840D01*
X24819D01*
X24919Y30940D01*
Y31340D01*
X24819Y31440D01*
X24519D01*
X25119D02*
Y30840D01*
X25419D01*
X25519Y30940D01*
Y31340D01*
X25419Y31440D01*
X25119D01*
X25719Y30740D02*
X26119D01*
X26319Y30840D02*
X26519D01*
X26419D01*
Y31440D01*
X26319Y31340D01*
X26818D02*
X26918Y31440D01*
X27118D01*
X27218Y31340D01*
Y30940D01*
X27118Y30840D01*
X26918D01*
X26818Y30940D01*
Y31340D01*
X27418Y31240D02*
Y30940D01*
X27518Y30840D01*
X27818D01*
Y31240D01*
X22070Y28770D02*
X21970Y28870D01*
X21770D01*
X21670Y28770D01*
Y28370D01*
X21770Y28270D01*
X21970D01*
X22070Y28370D01*
X22270Y28170D02*
X22670D01*
X22870Y28870D02*
Y28270D01*
X23170D01*
X23269Y28370D01*
Y28770D01*
X23170Y28870D01*
X22870D01*
X23469D02*
Y28470D01*
X23669Y28270D01*
X23869Y28470D01*
Y28870D01*
X24069D02*
Y28270D01*
X24369D01*
X24469Y28370D01*
Y28770D01*
X24369Y28870D01*
X24069D01*
X24669D02*
Y28270D01*
X24969D01*
X25069Y28370D01*
Y28770D01*
X24969Y28870D01*
X24669D01*
X25269Y28170D02*
X25669D01*
X25869Y28270D02*
X26069D01*
X25969D01*
Y28870D01*
X25869Y28770D01*
X26368D02*
X26468Y28870D01*
X26668D01*
X26768Y28770D01*
Y28370D01*
X26668Y28270D01*
X26468D01*
X26368Y28370D01*
Y28770D01*
X26968Y28670D02*
Y28370D01*
X27068Y28270D01*
X27368D01*
Y28670D01*
X19440Y34560D02*
Y33960D01*
X19740D01*
X19840Y34060D01*
Y34460D01*
X19740Y34560D01*
X19440D01*
X20040Y33960D02*
Y34360D01*
X20240Y34560D01*
X20440Y34360D01*
Y33960D01*
Y34260D01*
X20040D01*
X21039Y34460D02*
X20940Y34560D01*
X20740D01*
X20640Y34460D01*
Y34060D01*
X20740Y33960D01*
X20940D01*
X21039Y34060D01*
X21239Y34460D02*
X21339Y34560D01*
X21539D01*
X21639Y34460D01*
Y34360D01*
X21539Y34260D01*
X21639Y34160D01*
Y34060D01*
X21539Y33960D01*
X21339D01*
X21239Y34060D01*
Y34160D01*
X21339Y34260D01*
X21239Y34360D01*
Y34460D01*
X21339Y34260D02*
X21539D01*
X22239Y34560D02*
X21839D01*
Y34260D01*
X22039Y34360D01*
X22139D01*
X22239Y34260D01*
Y34060D01*
X22139Y33960D01*
X21939D01*
X21839Y34060D01*
X22739Y33960D02*
Y34560D01*
X22439Y34260D01*
X22839D01*
X23039Y33960D02*
X23239D01*
X23139D01*
Y34560D01*
X23039Y34460D01*
X23539Y34560D02*
Y34460D01*
X23739Y34260D01*
X23939Y34460D01*
Y34560D01*
X23739Y34260D02*
Y33960D01*
X24138Y34260D02*
X24538D01*
X24738Y33960D02*
Y34560D01*
X25038D01*
X25138Y34460D01*
Y34260D01*
X25038Y34160D01*
X24738D01*
X25338Y34560D02*
Y33960D01*
X25638D01*
X25738Y34060D01*
Y34160D01*
X25638Y34260D01*
X25338D01*
X25638D01*
X25738Y34360D01*
Y34460D01*
X25638Y34560D01*
X25338D01*
X26338Y34460D02*
X26238Y34560D01*
X26038D01*
X25938Y34460D01*
Y34360D01*
X26038Y34260D01*
X26238D01*
X26338Y34160D01*
Y34060D01*
X26238Y33960D01*
X26038D01*
X25938Y34060D01*
X18560Y36010D02*
X17960D01*
Y35710D01*
X18060Y35610D01*
X18460D01*
X18560Y35710D01*
Y36010D01*
Y35410D02*
X17960D01*
Y35110D01*
X18060Y35010D01*
X18160D01*
X18260Y35110D01*
Y35410D01*
Y35110D01*
X18360Y35010D01*
X18460D01*
X18560Y35110D01*
Y35410D01*
X18460Y34810D02*
X18560Y34710D01*
Y34510D01*
X18460Y34411D01*
X18360D01*
X18260Y34510D01*
X18160Y34411D01*
X18060D01*
X17960Y34510D01*
Y34710D01*
X18060Y34810D01*
X18160D01*
X18260Y34710D01*
X18360Y34810D01*
X18460D01*
X18260Y34710D02*
Y34510D01*
X18460Y34211D02*
X18560Y34111D01*
Y33911D01*
X18660Y33811D01*
X17960Y33611D02*
Y33411D01*
Y33511D01*
X18560D01*
X18460Y33611D01*
X18560Y32711D02*
Y33111D01*
X18260D01*
X18360Y32911D01*
Y32811D01*
X18260Y32711D01*
X18060D01*
X17960Y32811D01*
Y33011D01*
X18060Y33111D01*
X29390Y28400D02*
X29290Y28300D01*
Y28100D01*
X29390Y28000D01*
X29490D01*
X29590Y28100D01*
Y28300D01*
X29690Y28400D01*
X29790D01*
X29890Y28300D01*
Y28100D01*
X29790Y28000D01*
X29490Y28600D02*
X29790D01*
X29890Y28700D01*
Y29000D01*
X29490D01*
X30090Y29200D02*
X29490D01*
Y29500D01*
X29590Y29599D01*
X29790D01*
X29890Y29500D01*
Y29200D01*
X30090Y29799D02*
X29490D01*
Y30099D01*
X29590Y30199D01*
X29790D01*
X29890Y30099D01*
Y29799D01*
Y30399D02*
Y30599D01*
Y30499D01*
X29290D01*
Y30399D01*
X29490Y30899D02*
X29790D01*
X29890Y30999D01*
Y31299D01*
X29990D01*
X30090Y31199D01*
Y31099D01*
X29890Y31299D02*
X29490D01*
X29890Y32099D02*
X29290D01*
Y32399D01*
X29390Y32499D01*
X29590D01*
X29690Y32399D01*
Y32099D01*
X29890Y32698D02*
Y32898D01*
Y32798D01*
X29490D01*
Y32698D01*
X29890Y33198D02*
X29490D01*
Y33498D01*
X29590Y33598D01*
X29890D01*
Y33798D02*
Y34098D01*
X29790Y34198D01*
X29690Y34098D01*
Y33898D01*
X29590Y33798D01*
X29490Y33898D01*
Y34198D01*
X19980Y26700D02*
Y26100D01*
X20280D01*
X20380Y26200D01*
Y26600D01*
X20280Y26700D01*
X19980D01*
X20580D02*
Y26100D01*
X20880D01*
X20980Y26200D01*
Y26300D01*
X20880Y26400D01*
X20580D01*
X20880D01*
X20980Y26500D01*
Y26600D01*
X20880Y26700D01*
X20580D01*
X21180Y26600D02*
X21280Y26700D01*
X21480D01*
X21579Y26600D01*
Y26200D01*
X21480Y26100D01*
X21280D01*
X21180Y26200D01*
Y26600D01*
X21779D02*
X21879Y26700D01*
X22079D01*
X22179Y26800D01*
X22379Y26700D02*
X22779D01*
Y26600D01*
X22379Y26200D01*
Y26100D01*
X32000Y37000D02*
X40000D01*
Y36000D02*
Y37000D01*
X32000Y36000D02*
X40000D01*
X32000D02*
Y37000D01*
X31000Y28000D02*
Y36000D01*
X32000D01*
Y28000D02*
Y36000D01*
X31000Y28000D02*
X32000D01*
X41000D02*
Y36000D01*
X40000Y28000D02*
X41000D01*
X40000D02*
Y36000D01*
X41000D01*
X32000Y27000D02*
X40000D01*
X32000D02*
Y28000D01*
X40000D01*
Y27000D02*
Y28000D01*
X39530Y37460D02*
X39630Y37360D01*
X39830D01*
X39930Y37460D01*
Y37860D01*
X39830Y37960D01*
X39630D01*
X39530Y37860D01*
X39230Y37960D02*
X39030D01*
X38930Y37860D01*
Y37660D01*
X39030Y37560D01*
X39230D01*
X39330Y37660D01*
Y37860D01*
X39230Y37960D01*
X38730D02*
Y37560D01*
X38430D01*
X38331Y37660D01*
Y37960D01*
X38031Y37460D02*
Y37560D01*
X38131D01*
X37931D01*
X38031D01*
Y37860D01*
X37931Y37960D01*
X37631Y37560D02*
Y37960D01*
Y37760D01*
X37531Y37660D01*
X37431Y37560D01*
X37331D01*
X36931Y37960D02*
X36731D01*
X36631Y37860D01*
Y37660D01*
X36731Y37560D01*
X36931D01*
X37031Y37660D01*
Y37860D01*
X36931Y37960D01*
X36431D02*
X36231D01*
X36331D01*
Y37360D01*
X36431D01*
X35331D02*
X35132D01*
X35232D01*
Y37960D01*
X35331D01*
X35132D01*
X34532Y37360D02*
X34732D01*
X34832Y37460D01*
Y37860D01*
X34732Y37960D01*
X34532D01*
X34432Y37860D01*
Y37460D01*
X34532Y37360D01*
X33790Y32670D02*
X33690Y32770D01*
X33490D01*
X33390Y32670D01*
Y32270D01*
X33490Y32170D01*
X33690D01*
X33790Y32270D01*
X33990Y32070D02*
X34390D01*
X34590Y32170D02*
Y32570D01*
X34790Y32770D01*
X34989Y32570D01*
Y32170D01*
Y32470D01*
X34590D01*
X35189Y32770D02*
Y32370D01*
X35389Y32170D01*
X35589Y32370D01*
Y32770D01*
X35789D02*
Y32170D01*
X36089D01*
X36189Y32270D01*
Y32670D01*
X36089Y32770D01*
X35789D01*
X36389D02*
Y32170D01*
X36689D01*
X36789Y32270D01*
Y32670D01*
X36689Y32770D01*
X36389D01*
X36989Y32070D02*
X37389D01*
X37589Y32670D02*
X37689Y32770D01*
X37889D01*
X37989Y32670D01*
Y32270D01*
X37889Y32170D01*
X37689D01*
X37589Y32270D01*
Y32670D01*
X38188Y32170D02*
Y32270D01*
X38288D01*
Y32170D01*
X38188D01*
X38688D02*
X38888D01*
X38788D01*
Y32770D01*
X38688Y32670D01*
X39188Y32570D02*
Y32270D01*
X39288Y32170D01*
X39588D01*
Y32570D01*
X34020Y30100D02*
X33920Y30200D01*
X33720D01*
X33620Y30100D01*
Y29700D01*
X33720Y29600D01*
X33920D01*
X34020Y29700D01*
X34220Y29500D02*
X34620D01*
X34820Y30200D02*
Y29600D01*
X35120D01*
X35219Y29700D01*
Y30100D01*
X35120Y30200D01*
X34820D01*
X35419D02*
Y29800D01*
X35619Y29600D01*
X35819Y29800D01*
Y30200D01*
X36019D02*
Y29600D01*
X36319D01*
X36419Y29700D01*
Y30100D01*
X36319Y30200D01*
X36019D01*
X36619D02*
Y29600D01*
X36919D01*
X37019Y29700D01*
Y30100D01*
X36919Y30200D01*
X36619D01*
X37219Y29500D02*
X37619D01*
X37819Y30100D02*
X37919Y30200D01*
X38119D01*
X38219Y30100D01*
Y29700D01*
X38119Y29600D01*
X37919D01*
X37819Y29700D01*
Y30100D01*
X38418Y29600D02*
Y29700D01*
X38518D01*
Y29600D01*
X38418D01*
X38918D02*
X39118D01*
X39018D01*
Y30200D01*
X38918Y30100D01*
X39418Y30000D02*
Y29700D01*
X39518Y29600D01*
X39818D01*
Y30000D01*
X34520Y31340D02*
X34420Y31440D01*
X34220D01*
X34120Y31340D01*
Y30940D01*
X34220Y30840D01*
X34420D01*
X34520Y30940D01*
X34720Y30740D02*
X35120D01*
X35320Y30840D02*
Y31240D01*
X35520Y31440D01*
X35719Y31240D01*
Y30840D01*
Y31140D01*
X35320D01*
X35919Y31440D02*
Y31040D01*
X36119Y30840D01*
X36319Y31040D01*
Y31440D01*
X36519D02*
Y30840D01*
X36819D01*
X36919Y30940D01*
Y31340D01*
X36819Y31440D01*
X36519D01*
X37119D02*
Y30840D01*
X37419D01*
X37519Y30940D01*
Y31340D01*
X37419Y31440D01*
X37119D01*
X37719Y30740D02*
X38119D01*
X38319Y30840D02*
X38519D01*
X38419D01*
Y31440D01*
X38319Y31340D01*
X38818D02*
X38918Y31440D01*
X39118D01*
X39218Y31340D01*
Y30940D01*
X39118Y30840D01*
X38918D01*
X38818Y30940D01*
Y31340D01*
X39418Y31240D02*
Y30940D01*
X39518Y30840D01*
X39818D01*
Y31240D01*
X34070Y28770D02*
X33970Y28870D01*
X33770D01*
X33670Y28770D01*
Y28370D01*
X33770Y28270D01*
X33970D01*
X34070Y28370D01*
X34270Y28170D02*
X34670D01*
X34870Y28870D02*
Y28270D01*
X35170D01*
X35269Y28370D01*
Y28770D01*
X35170Y28870D01*
X34870D01*
X35469D02*
Y28470D01*
X35669Y28270D01*
X35869Y28470D01*
Y28870D01*
X36069D02*
Y28270D01*
X36369D01*
X36469Y28370D01*
Y28770D01*
X36369Y28870D01*
X36069D01*
X36669D02*
Y28270D01*
X36969D01*
X37069Y28370D01*
Y28770D01*
X36969Y28870D01*
X36669D01*
X37269Y28170D02*
X37669D01*
X37869Y28270D02*
X38069D01*
X37969D01*
Y28870D01*
X37869Y28770D01*
X38368D02*
X38468Y28870D01*
X38668D01*
X38768Y28770D01*
Y28370D01*
X38668Y28270D01*
X38468D01*
X38368Y28370D01*
Y28770D01*
X38968Y28670D02*
Y28370D01*
X39068Y28270D01*
X39368D01*
Y28670D01*
X31440Y34560D02*
Y33960D01*
X31740D01*
X31840Y34060D01*
Y34460D01*
X31740Y34560D01*
X31440D01*
X32040Y33960D02*
Y34360D01*
X32240Y34560D01*
X32440Y34360D01*
Y33960D01*
Y34260D01*
X32040D01*
X33039Y34460D02*
X32940Y34560D01*
X32740D01*
X32640Y34460D01*
Y34060D01*
X32740Y33960D01*
X32940D01*
X33039Y34060D01*
X33239Y34460D02*
X33339Y34560D01*
X33539D01*
X33639Y34460D01*
Y34360D01*
X33539Y34260D01*
X33639Y34160D01*
Y34060D01*
X33539Y33960D01*
X33339D01*
X33239Y34060D01*
Y34160D01*
X33339Y34260D01*
X33239Y34360D01*
Y34460D01*
X33339Y34260D02*
X33539D01*
X34239Y34560D02*
X33839D01*
Y34260D01*
X34039Y34360D01*
X34139D01*
X34239Y34260D01*
Y34060D01*
X34139Y33960D01*
X33939D01*
X33839Y34060D01*
X34739Y33960D02*
Y34560D01*
X34439Y34260D01*
X34839D01*
X35039Y33960D02*
X35239D01*
X35139D01*
Y34560D01*
X35039Y34460D01*
X35539Y34560D02*
Y34460D01*
X35739Y34260D01*
X35939Y34460D01*
Y34560D01*
X35739Y34260D02*
Y33960D01*
X36138Y34260D02*
X36538D01*
X36738Y33960D02*
Y34560D01*
X37038D01*
X37138Y34460D01*
Y34260D01*
X37038Y34160D01*
X36738D01*
X37338Y34560D02*
Y33960D01*
X37638D01*
X37738Y34060D01*
Y34160D01*
X37638Y34260D01*
X37338D01*
X37638D01*
X37738Y34360D01*
Y34460D01*
X37638Y34560D01*
X37338D01*
X38338Y34460D02*
X38238Y34560D01*
X38038D01*
X37938Y34460D01*
Y34360D01*
X38038Y34260D01*
X38238D01*
X38338Y34160D01*
Y34060D01*
X38238Y33960D01*
X38038D01*
X37938Y34060D01*
X30560Y36010D02*
X29960D01*
Y35710D01*
X30060Y35610D01*
X30460D01*
X30560Y35710D01*
Y36010D01*
Y35410D02*
X29960D01*
Y35110D01*
X30060Y35010D01*
X30160D01*
X30260Y35110D01*
Y35410D01*
Y35110D01*
X30360Y35010D01*
X30460D01*
X30560Y35110D01*
Y35410D01*
X30460Y34810D02*
X30560Y34710D01*
Y34510D01*
X30460Y34411D01*
X30360D01*
X30260Y34510D01*
X30160Y34411D01*
X30060D01*
X29960Y34510D01*
Y34710D01*
X30060Y34810D01*
X30160D01*
X30260Y34710D01*
X30360Y34810D01*
X30460D01*
X30260Y34710D02*
Y34510D01*
X30460Y34211D02*
X30560Y34111D01*
Y33911D01*
X30660Y33811D01*
X29960Y33611D02*
Y33411D01*
Y33511D01*
X30560D01*
X30460Y33611D01*
X30560Y32711D02*
Y33111D01*
X30260D01*
X30360Y32911D01*
Y32811D01*
X30260Y32711D01*
X30060D01*
X29960Y32811D01*
Y33011D01*
X30060Y33111D01*
X41390Y28400D02*
X41290Y28300D01*
Y28100D01*
X41390Y28000D01*
X41490D01*
X41590Y28100D01*
Y28300D01*
X41690Y28400D01*
X41790D01*
X41890Y28300D01*
Y28100D01*
X41790Y28000D01*
X41490Y28600D02*
X41790D01*
X41890Y28700D01*
Y29000D01*
X41490D01*
X42090Y29200D02*
X41490D01*
Y29500D01*
X41590Y29599D01*
X41790D01*
X41890Y29500D01*
Y29200D01*
X42090Y29799D02*
X41490D01*
Y30099D01*
X41590Y30199D01*
X41790D01*
X41890Y30099D01*
Y29799D01*
Y30399D02*
Y30599D01*
Y30499D01*
X41290D01*
Y30399D01*
X41490Y30899D02*
X41790D01*
X41890Y30999D01*
Y31299D01*
X41990D01*
X42090Y31199D01*
Y31099D01*
X41890Y31299D02*
X41490D01*
X41890Y32099D02*
X41290D01*
Y32399D01*
X41390Y32499D01*
X41590D01*
X41690Y32399D01*
Y32099D01*
X41890Y32698D02*
Y32898D01*
Y32798D01*
X41490D01*
Y32698D01*
X41890Y33198D02*
X41490D01*
Y33498D01*
X41590Y33598D01*
X41890D01*
Y33798D02*
Y34098D01*
X41790Y34198D01*
X41690Y34098D01*
Y33898D01*
X41590Y33798D01*
X41490Y33898D01*
Y34198D01*
X31980Y26700D02*
Y26100D01*
X32280D01*
X32380Y26200D01*
Y26600D01*
X32280Y26700D01*
X31980D01*
X32580D02*
Y26100D01*
X32880D01*
X32980Y26200D01*
Y26300D01*
X32880Y26400D01*
X32580D01*
X32880D01*
X32980Y26500D01*
Y26600D01*
X32880Y26700D01*
X32580D01*
X33180Y26600D02*
X33280Y26700D01*
X33480D01*
X33579Y26600D01*
Y26200D01*
X33480Y26100D01*
X33280D01*
X33180Y26200D01*
Y26600D01*
X33779D02*
X33879Y26700D01*
X34079D01*
X34179Y26800D01*
X34379Y26700D02*
X34779D01*
Y26600D01*
X34379Y26200D01*
Y26100D01*
X44000Y37000D02*
X52000D01*
Y36000D02*
Y37000D01*
X44000Y36000D02*
X52000D01*
X44000D02*
Y37000D01*
X43000Y28000D02*
Y36000D01*
X44000D01*
Y28000D02*
Y36000D01*
X43000Y28000D02*
X44000D01*
X53000D02*
Y36000D01*
X52000Y28000D02*
X53000D01*
X52000D02*
Y36000D01*
X53000D01*
X44000Y27000D02*
X52000D01*
X44000D02*
Y28000D01*
X52000D01*
Y27000D02*
Y28000D01*
X51530Y37460D02*
X51630Y37360D01*
X51830D01*
X51930Y37460D01*
Y37860D01*
X51830Y37960D01*
X51630D01*
X51530Y37860D01*
X51230Y37960D02*
X51030D01*
X50930Y37860D01*
Y37660D01*
X51030Y37560D01*
X51230D01*
X51330Y37660D01*
Y37860D01*
X51230Y37960D01*
X50730D02*
Y37560D01*
X50430D01*
X50331Y37660D01*
Y37960D01*
X50031Y37460D02*
Y37560D01*
X50131D01*
X49931D01*
X50031D01*
Y37860D01*
X49931Y37960D01*
X49631Y37560D02*
Y37960D01*
Y37760D01*
X49531Y37660D01*
X49431Y37560D01*
X49331D01*
X48931Y37960D02*
X48731D01*
X48631Y37860D01*
Y37660D01*
X48731Y37560D01*
X48931D01*
X49031Y37660D01*
Y37860D01*
X48931Y37960D01*
X48431D02*
X48231D01*
X48331D01*
Y37360D01*
X48431D01*
X47331D02*
X47132D01*
X47232D01*
Y37960D01*
X47331D01*
X47132D01*
X46532Y37360D02*
X46732D01*
X46832Y37460D01*
Y37860D01*
X46732Y37960D01*
X46532D01*
X46432Y37860D01*
Y37460D01*
X46532Y37360D01*
X45790Y32670D02*
X45690Y32770D01*
X45490D01*
X45390Y32670D01*
Y32270D01*
X45490Y32170D01*
X45690D01*
X45790Y32270D01*
X45990Y32070D02*
X46390D01*
X46590Y32170D02*
Y32570D01*
X46790Y32770D01*
X46989Y32570D01*
Y32170D01*
Y32470D01*
X46590D01*
X47189Y32770D02*
Y32370D01*
X47389Y32170D01*
X47589Y32370D01*
Y32770D01*
X47789D02*
Y32170D01*
X48089D01*
X48189Y32270D01*
Y32670D01*
X48089Y32770D01*
X47789D01*
X48389D02*
Y32170D01*
X48689D01*
X48789Y32270D01*
Y32670D01*
X48689Y32770D01*
X48389D01*
X48989Y32070D02*
X49389D01*
X49589Y32670D02*
X49689Y32770D01*
X49889D01*
X49989Y32670D01*
Y32270D01*
X49889Y32170D01*
X49689D01*
X49589Y32270D01*
Y32670D01*
X50188Y32170D02*
Y32270D01*
X50288D01*
Y32170D01*
X50188D01*
X50688D02*
X50888D01*
X50788D01*
Y32770D01*
X50688Y32670D01*
X51188Y32570D02*
Y32270D01*
X51288Y32170D01*
X51588D01*
Y32570D01*
X46020Y30100D02*
X45920Y30200D01*
X45720D01*
X45620Y30100D01*
Y29700D01*
X45720Y29600D01*
X45920D01*
X46020Y29700D01*
X46220Y29500D02*
X46620D01*
X46820Y30200D02*
Y29600D01*
X47120D01*
X47219Y29700D01*
Y30100D01*
X47120Y30200D01*
X46820D01*
X47419D02*
Y29800D01*
X47619Y29600D01*
X47819Y29800D01*
Y30200D01*
X48019D02*
Y29600D01*
X48319D01*
X48419Y29700D01*
Y30100D01*
X48319Y30200D01*
X48019D01*
X48619D02*
Y29600D01*
X48919D01*
X49019Y29700D01*
Y30100D01*
X48919Y30200D01*
X48619D01*
X49219Y29500D02*
X49619D01*
X49819Y30100D02*
X49919Y30200D01*
X50119D01*
X50219Y30100D01*
Y29700D01*
X50119Y29600D01*
X49919D01*
X49819Y29700D01*
Y30100D01*
X50418Y29600D02*
Y29700D01*
X50518D01*
Y29600D01*
X50418D01*
X50918D02*
X51118D01*
X51018D01*
Y30200D01*
X50918Y30100D01*
X51418Y30000D02*
Y29700D01*
X51518Y29600D01*
X51818D01*
Y30000D01*
X46520Y31340D02*
X46420Y31440D01*
X46220D01*
X46120Y31340D01*
Y30940D01*
X46220Y30840D01*
X46420D01*
X46520Y30940D01*
X46720Y30740D02*
X47120D01*
X47320Y30840D02*
Y31240D01*
X47520Y31440D01*
X47719Y31240D01*
Y30840D01*
Y31140D01*
X47320D01*
X47919Y31440D02*
Y31040D01*
X48119Y30840D01*
X48319Y31040D01*
Y31440D01*
X48519D02*
Y30840D01*
X48819D01*
X48919Y30940D01*
Y31340D01*
X48819Y31440D01*
X48519D01*
X49119D02*
Y30840D01*
X49419D01*
X49519Y30940D01*
Y31340D01*
X49419Y31440D01*
X49119D01*
X49719Y30740D02*
X50119D01*
X50319Y30840D02*
X50519D01*
X50419D01*
Y31440D01*
X50319Y31340D01*
X50818D02*
X50918Y31440D01*
X51118D01*
X51218Y31340D01*
Y30940D01*
X51118Y30840D01*
X50918D01*
X50818Y30940D01*
Y31340D01*
X51418Y31240D02*
Y30940D01*
X51518Y30840D01*
X51818D01*
Y31240D01*
X46070Y28770D02*
X45970Y28870D01*
X45770D01*
X45670Y28770D01*
Y28370D01*
X45770Y28270D01*
X45970D01*
X46070Y28370D01*
X46270Y28170D02*
X46670D01*
X46870Y28870D02*
Y28270D01*
X47170D01*
X47269Y28370D01*
Y28770D01*
X47170Y28870D01*
X46870D01*
X47469D02*
Y28470D01*
X47669Y28270D01*
X47869Y28470D01*
Y28870D01*
X48069D02*
Y28270D01*
X48369D01*
X48469Y28370D01*
Y28770D01*
X48369Y28870D01*
X48069D01*
X48669D02*
Y28270D01*
X48969D01*
X49069Y28370D01*
Y28770D01*
X48969Y28870D01*
X48669D01*
X49269Y28170D02*
X49669D01*
X49869Y28270D02*
X50069D01*
X49969D01*
Y28870D01*
X49869Y28770D01*
X50368D02*
X50468Y28870D01*
X50668D01*
X50768Y28770D01*
Y28370D01*
X50668Y28270D01*
X50468D01*
X50368Y28370D01*
Y28770D01*
X50968Y28670D02*
Y28370D01*
X51068Y28270D01*
X51368D01*
Y28670D01*
X43440Y34560D02*
Y33960D01*
X43740D01*
X43840Y34060D01*
Y34460D01*
X43740Y34560D01*
X43440D01*
X44040Y33960D02*
Y34360D01*
X44240Y34560D01*
X44440Y34360D01*
Y33960D01*
Y34260D01*
X44040D01*
X45039Y34460D02*
X44940Y34560D01*
X44740D01*
X44640Y34460D01*
Y34060D01*
X44740Y33960D01*
X44940D01*
X45039Y34060D01*
X45239Y34460D02*
X45339Y34560D01*
X45539D01*
X45639Y34460D01*
Y34360D01*
X45539Y34260D01*
X45639Y34160D01*
Y34060D01*
X45539Y33960D01*
X45339D01*
X45239Y34060D01*
Y34160D01*
X45339Y34260D01*
X45239Y34360D01*
Y34460D01*
X45339Y34260D02*
X45539D01*
X46239Y34560D02*
X45839D01*
Y34260D01*
X46039Y34360D01*
X46139D01*
X46239Y34260D01*
Y34060D01*
X46139Y33960D01*
X45939D01*
X45839Y34060D01*
X46739Y33960D02*
Y34560D01*
X46439Y34260D01*
X46839D01*
X47039Y33960D02*
X47239D01*
X47139D01*
Y34560D01*
X47039Y34460D01*
X47539Y34560D02*
Y34460D01*
X47739Y34260D01*
X47939Y34460D01*
Y34560D01*
X47739Y34260D02*
Y33960D01*
X48138Y34260D02*
X48538D01*
X48738Y33960D02*
Y34560D01*
X49038D01*
X49138Y34460D01*
Y34260D01*
X49038Y34160D01*
X48738D01*
X49338Y34560D02*
Y33960D01*
X49638D01*
X49738Y34060D01*
Y34160D01*
X49638Y34260D01*
X49338D01*
X49638D01*
X49738Y34360D01*
Y34460D01*
X49638Y34560D01*
X49338D01*
X50338Y34460D02*
X50238Y34560D01*
X50038D01*
X49938Y34460D01*
Y34360D01*
X50038Y34260D01*
X50238D01*
X50338Y34160D01*
Y34060D01*
X50238Y33960D01*
X50038D01*
X49938Y34060D01*
X42560Y36010D02*
X41960D01*
Y35710D01*
X42060Y35610D01*
X42460D01*
X42560Y35710D01*
Y36010D01*
Y35410D02*
X41960D01*
Y35110D01*
X42060Y35010D01*
X42160D01*
X42260Y35110D01*
Y35410D01*
Y35110D01*
X42360Y35010D01*
X42460D01*
X42560Y35110D01*
Y35410D01*
X42460Y34810D02*
X42560Y34710D01*
Y34510D01*
X42460Y34411D01*
X42360D01*
X42260Y34510D01*
X42160Y34411D01*
X42060D01*
X41960Y34510D01*
Y34710D01*
X42060Y34810D01*
X42160D01*
X42260Y34710D01*
X42360Y34810D01*
X42460D01*
X42260Y34710D02*
Y34510D01*
X42460Y34211D02*
X42560Y34111D01*
Y33911D01*
X42660Y33811D01*
X41960Y33611D02*
Y33411D01*
Y33511D01*
X42560D01*
X42460Y33611D01*
X42560Y32711D02*
Y33111D01*
X42260D01*
X42360Y32911D01*
Y32811D01*
X42260Y32711D01*
X42060D01*
X41960Y32811D01*
Y33011D01*
X42060Y33111D01*
X53390Y28400D02*
X53290Y28300D01*
Y28100D01*
X53390Y28000D01*
X53490D01*
X53590Y28100D01*
Y28300D01*
X53690Y28400D01*
X53790D01*
X53890Y28300D01*
Y28100D01*
X53790Y28000D01*
X53490Y28600D02*
X53790D01*
X53890Y28700D01*
Y29000D01*
X53490D01*
X54090Y29200D02*
X53490D01*
Y29500D01*
X53590Y29599D01*
X53790D01*
X53890Y29500D01*
Y29200D01*
X54090Y29799D02*
X53490D01*
Y30099D01*
X53590Y30199D01*
X53790D01*
X53890Y30099D01*
Y29799D01*
Y30399D02*
Y30599D01*
Y30499D01*
X53290D01*
Y30399D01*
X53490Y30899D02*
X53790D01*
X53890Y30999D01*
Y31299D01*
X53990D01*
X54090Y31199D01*
Y31099D01*
X53890Y31299D02*
X53490D01*
X53890Y32099D02*
X53290D01*
Y32399D01*
X53390Y32499D01*
X53590D01*
X53690Y32399D01*
Y32099D01*
X53890Y32698D02*
Y32898D01*
Y32798D01*
X53490D01*
Y32698D01*
X53890Y33198D02*
X53490D01*
Y33498D01*
X53590Y33598D01*
X53890D01*
Y33798D02*
Y34098D01*
X53790Y34198D01*
X53690Y34098D01*
Y33898D01*
X53590Y33798D01*
X53490Y33898D01*
Y34198D01*
X43980Y26700D02*
Y26100D01*
X44280D01*
X44380Y26200D01*
Y26600D01*
X44280Y26700D01*
X43980D01*
X44580D02*
Y26100D01*
X44880D01*
X44980Y26200D01*
Y26300D01*
X44880Y26400D01*
X44580D01*
X44880D01*
X44980Y26500D01*
Y26600D01*
X44880Y26700D01*
X44580D01*
X45180Y26600D02*
X45280Y26700D01*
X45480D01*
X45579Y26600D01*
Y26200D01*
X45480Y26100D01*
X45280D01*
X45180Y26200D01*
Y26600D01*
X45779D02*
X45879Y26700D01*
X46079D01*
X46179Y26800D01*
X46379Y26700D02*
X46779D01*
Y26600D01*
X46379Y26200D01*
Y26100D01*
D21*
X14404Y8750D02*
X14876D01*
X15000Y6624D02*
Y7096D01*
X15264Y8750D02*
X15736D01*
X15000Y5764D02*
Y6236D01*
X11272Y7272D02*
Y8728D01*
X12728Y7272D02*
Y8728D01*
X11272D02*
X12728D01*
X11272Y7272D02*
X12728D01*
X26404Y8750D02*
X26876D01*
X27000Y6624D02*
Y7096D01*
X27264Y8750D02*
X27736D01*
X27000Y5764D02*
Y6236D01*
X23272Y7272D02*
Y8728D01*
X24728Y7272D02*
Y8728D01*
X23272D02*
X24728D01*
X23272Y7272D02*
X24728D01*
X38404Y8750D02*
X38876D01*
X39000Y6624D02*
Y7096D01*
X39264Y8750D02*
X39736D01*
X39000Y5764D02*
Y6236D01*
X35272Y7272D02*
Y8728D01*
X36728Y7272D02*
Y8728D01*
X35272D02*
X36728D01*
X35272Y7272D02*
X36728D01*
X50404Y8750D02*
X50876D01*
X51000Y6624D02*
Y7096D01*
X51264Y8750D02*
X51736D01*
X51000Y5764D02*
Y6236D01*
X47272Y7272D02*
Y8728D01*
X48728Y7272D02*
Y8728D01*
X47272D02*
X48728D01*
X47272Y7272D02*
X48728D01*
X14404Y20750D02*
X14876D01*
X15000Y18624D02*
Y19096D01*
X15264Y20750D02*
X15736D01*
X15000Y17764D02*
Y18236D01*
X11272Y19272D02*
Y20728D01*
X12728Y19272D02*
Y20728D01*
X11272D02*
X12728D01*
X11272Y19272D02*
X12728D01*
X26404Y20750D02*
X26876D01*
X27000Y18624D02*
Y19096D01*
X27264Y20750D02*
X27736D01*
X27000Y17764D02*
Y18236D01*
X23272Y19272D02*
Y20728D01*
X24728Y19272D02*
Y20728D01*
X23272D02*
X24728D01*
X23272Y19272D02*
X24728D01*
X38404Y20750D02*
X38876D01*
X39000Y18624D02*
Y19096D01*
X39264Y20750D02*
X39736D01*
X39000Y17764D02*
Y18236D01*
X35272Y19272D02*
Y20728D01*
X36728Y19272D02*
Y20728D01*
X35272D02*
X36728D01*
X35272Y19272D02*
X36728D01*
X50404Y20750D02*
X50876D01*
X51000Y18624D02*
Y19096D01*
X51264Y20750D02*
X51736D01*
X51000Y17764D02*
Y18236D01*
X47272Y19272D02*
Y20728D01*
X48728Y19272D02*
Y20728D01*
X47272D02*
X48728D01*
X47272Y19272D02*
X48728D01*
X14404Y32750D02*
X14876D01*
X15000Y30624D02*
Y31096D01*
X15264Y32750D02*
X15736D01*
X15000Y29764D02*
Y30236D01*
X11272Y31272D02*
Y32728D01*
X12728Y31272D02*
Y32728D01*
X11272D02*
X12728D01*
X11272Y31272D02*
X12728D01*
X26404Y32750D02*
X26876D01*
X27000Y30624D02*
Y31096D01*
X27264Y32750D02*
X27736D01*
X27000Y29764D02*
Y30236D01*
X23272Y31272D02*
Y32728D01*
X24728Y31272D02*
Y32728D01*
X23272D02*
X24728D01*
X23272Y31272D02*
X24728D01*
X38404Y32750D02*
X38876D01*
X39000Y30624D02*
Y31096D01*
X39264Y32750D02*
X39736D01*
X39000Y29764D02*
Y30236D01*
X35272Y31272D02*
Y32728D01*
X36728Y31272D02*
Y32728D01*
X35272D02*
X36728D01*
X35272Y31272D02*
X36728D01*
X50404Y32750D02*
X50876D01*
X51000Y30624D02*
Y31096D01*
X51264Y32750D02*
X51736D01*
X51000Y29764D02*
Y30236D01*
X47272Y31272D02*
Y32728D01*
X48728Y31272D02*
Y32728D01*
X47272D02*
X48728D01*
X47272Y31272D02*
X48728D01*
M02*
